<svg width="88" height="88" viewBox="0 0 88 88" fill="none" xmlns="http://www.w3.org/2000/svg">
    <g filter="url(#filter0_d)">
    <circle cx="44" cy="40" r="40" fill="#EBE4DD"/>
    </g>
    <path d="M44 18C52.832 18 60 25.168 60 34C60 42.832 52.832 50 44 50C35.168 50 28 42.832 28 34C28 25.168 35.168 18 44 18ZM34.4368 39.4656C36.7856 42.9696 40.312 45.2 44.256 45.2C48.1984 45.2 51.7264 42.9712 54.0736 39.4656C51.4108 36.977 47.9007 35.5949 44.256 35.6C40.6107 35.5945 37.1 36.9766 34.4368 39.4656ZM44 32.4C45.273 32.4 46.4939 31.8943 47.3941 30.9941C48.2943 30.0939 48.8 28.873 48.8 27.6C48.8 26.327 48.2943 25.1061 47.3941 24.2059C46.4939 23.3057 45.273 22.8 44 22.8C42.727 22.8 41.5061 23.3057 40.6059 24.2059C39.7057 25.1061 39.2 26.327 39.2 27.6C39.2 28.873 39.7057 30.0939 40.6059 30.9941C41.5061 31.8943 42.727 32.4 44 32.4Z" fill="#982C31"/>
    <path d="M26.1763 63.5879H22.3042L21.4346 66H20.1777L23.707 56.7578H24.7734L28.3091 66H27.0586L26.1763 63.5879ZM22.6724 62.585H25.8145L24.2402 58.2622L22.6724 62.585ZM32.124 65.1685C32.543 65.1685 32.909 65.0415 33.2222 64.7876C33.5353 64.5337 33.7088 64.2163 33.7427 63.8354H34.8535C34.8324 64.229 34.6969 64.6035 34.4473 64.959C34.1976 65.3145 33.8633 65.598 33.4443 65.8096C33.0296 66.0212 32.5895 66.127 32.124 66.127C31.1888 66.127 30.444 65.8159 29.8896 65.1938C29.3395 64.5675 29.0645 63.7127 29.0645 62.6294V62.4326C29.0645 61.764 29.1872 61.1694 29.4326 60.6489C29.6781 60.1284 30.0293 59.7243 30.4863 59.4365C30.9476 59.1488 31.4914 59.0049 32.1177 59.0049C32.8879 59.0049 33.5269 59.2355 34.0347 59.6968C34.5467 60.158 34.8197 60.7568 34.8535 61.4932H33.7427C33.7088 61.0488 33.5396 60.6849 33.2349 60.4014C32.9344 60.1136 32.562 59.9697 32.1177 59.9697C31.521 59.9697 31.0576 60.1855 30.7275 60.6172C30.4017 61.0446 30.2388 61.6646 30.2388 62.4771V62.6992C30.2388 63.4906 30.4017 64.0999 30.7275 64.5273C31.0534 64.9548 31.5189 65.1685 32.124 65.1685ZM38.9287 65.1685C39.3477 65.1685 39.7137 65.0415 40.0269 64.7876C40.34 64.5337 40.5135 64.2163 40.5474 63.8354H41.6582C41.637 64.229 41.5016 64.6035 41.252 64.959C41.0023 65.3145 40.668 65.598 40.249 65.8096C39.8343 66.0212 39.3942 66.127 38.9287 66.127C37.9935 66.127 37.2487 65.8159 36.6943 65.1938C36.1442 64.5675 35.8691 63.7127 35.8691 62.6294V62.4326C35.8691 61.764 35.9919 61.1694 36.2373 60.6489C36.4827 60.1284 36.834 59.7243 37.291 59.4365C37.7523 59.1488 38.2961 59.0049 38.9224 59.0049C39.6925 59.0049 40.3315 59.2355 40.8394 59.6968C41.3514 60.158 41.6243 60.7568 41.6582 61.4932H40.5474C40.5135 61.0488 40.3442 60.6849 40.0396 60.4014C39.7391 60.1136 39.3667 59.9697 38.9224 59.9697C38.3257 59.9697 37.8623 60.1855 37.5322 60.6172C37.2064 61.0446 37.0435 61.6646 37.0435 62.4771V62.6992C37.0435 63.4906 37.2064 64.0999 37.5322 64.5273C37.8581 64.9548 38.3236 65.1685 38.9287 65.1685ZM42.6675 62.5024C42.6675 61.8296 42.7987 61.2244 43.061 60.687C43.3276 60.1496 43.6958 59.7349 44.1655 59.4429C44.6395 59.1509 45.179 59.0049 45.7842 59.0049C46.7194 59.0049 47.4748 59.3286 48.0503 59.9761C48.63 60.6235 48.9199 61.4847 48.9199 62.5596V62.6421C48.9199 63.3107 48.7909 63.9116 48.5327 64.4448C48.2788 64.9738 47.9128 65.3864 47.4346 65.6826C46.9606 65.9788 46.4147 66.127 45.7969 66.127C44.8659 66.127 44.1105 65.8032 43.5308 65.1558C42.9552 64.5083 42.6675 63.6514 42.6675 62.585V62.5024ZM43.8481 62.6421C43.8481 63.4038 44.0238 64.0153 44.375 64.4766C44.7305 64.9378 45.2044 65.1685 45.7969 65.1685C46.3936 65.1685 46.8675 64.9357 47.2188 64.4702C47.57 64.0005 47.7456 63.3446 47.7456 62.5024C47.7456 61.7492 47.5658 61.1398 47.2061 60.6743C46.8506 60.2046 46.3766 59.9697 45.7842 59.9697C45.2044 59.9697 44.7368 60.2004 44.3813 60.6616C44.0259 61.1229 43.8481 61.783 43.8481 62.6421ZM54.6328 65.3208C54.1758 65.8582 53.505 66.127 52.6206 66.127C51.8885 66.127 51.3299 65.9154 50.9448 65.4922C50.564 65.0648 50.3714 64.4342 50.3672 63.6006V59.1318H51.5415V63.5688C51.5415 64.6099 51.9647 65.1304 52.811 65.1304C53.7082 65.1304 54.3049 64.7961 54.6011 64.1274V59.1318H55.7754V66H54.6582L54.6328 65.3208ZM58.6763 59.1318L58.7144 59.9951C59.2391 59.335 59.9246 59.0049 60.771 59.0049C62.2225 59.0049 62.9546 59.8237 62.9673 61.4614V66H61.793V61.4551C61.7887 60.96 61.6745 60.5939 61.4502 60.3569C61.2301 60.12 60.8853 60.0015 60.4155 60.0015C60.0347 60.0015 59.7004 60.103 59.4126 60.3062C59.1248 60.5093 58.9006 60.7759 58.7397 61.106V66H57.5654V59.1318H58.6763ZM66.3315 57.4688V59.1318H67.6138V60.0396H66.3315V64.2988C66.3315 64.5739 66.3887 64.7812 66.5029 64.9209C66.6172 65.0563 66.8118 65.124 67.0869 65.124C67.2223 65.124 67.4085 65.0986 67.6455 65.0479V66C67.3366 66.0846 67.0361 66.127 66.7441 66.127C66.2194 66.127 65.8237 65.9683 65.5571 65.6509C65.2905 65.3335 65.1572 64.8828 65.1572 64.2988V60.0396H63.9067V59.1318H65.1572V57.4688H66.3315Z" fill="#982C31"/>
    <defs>
    <filter id="filter0_d" x="0" y="0" width="88" height="88" filterUnits="userSpaceOnUse" color-interpolation-filters="sRGB">
    <feFlood flood-opacity="0" result="BackgroundImageFix"/>
    <feColorMatrix in="SourceAlpha" type="matrix" values="0 0 0 0 0 0 0 0 0 0 0 0 0 0 0 0 0 0 127 0"/>
    <feOffset dy="4"/>
    <feGaussianBlur stdDeviation="2"/>
    <feColorMatrix type="matrix" values="0 0 0 0 0 0 0 0 0 0 0 0 0 0 0 0 0 0 0.4 0"/>
    <feBlend mode="normal" in2="BackgroundImageFix" result="effect1_dropShadow"/>
    <feBlend mode="normal" in="SourceGraphic" in2="effect1_dropShadow" result="shape"/>
    </filter>
    </defs>
    </svg>
    