<svg xmlns="http://www.w3.org/2000/svg" viewBox="0 0 512.008 512.008">
    <defs/>
    <path fill="#ffbecb" d="M124.005 141.405v82.26c0 83.11 53.782 156.772 132 182.614 78.218-25.842 132-99.504 132-182.614v-82.26c-45.825-4.3-90.644-16.393-132-35.669-41.356 19.276-86.176 31.368-132 35.669z"/>
    <path fill="#fff" d="M168.005 179.672v43.993c0 59.146 34.808 111.89 88 135.507 53.192-23.617 88-76.361 88-135.507v-43.993c-30.236-5.588-59.668-14.249-88-25.905-28.332 11.656-57.764 20.317-88 25.905z"/>
    <path fill="#ffbecb" d="M247.796 291.504l-38.456-38.455 25.456-25.456 13 13 29.417-29.417 25.456 25.456z"/>
    <path fill="#fff7c6" d="M478.838 152.098l14.638-6.826-48.027-17.48-17.48 48.027 14.637-6.825c47.979 102.891 3.305 225.634-99.587 273.614-49.844 23.241-105.753 25.683-157.43 6.874l-13.673 37.568c27.444 9.988 55.877 14.958 84.238 14.957 35.413-.001 70.71-7.754 103.761-23.166 59.521-27.755 104.671-77.028 127.133-138.741 22.46-61.714 19.546-128.481-8.21-188.002zM152.095 33.173c-59.52 27.756-104.67 77.028-127.132 138.742-22.462 61.713-19.547 128.48 8.209 188.001l-14.637 6.826 48.027 17.48 17.48-48.027-14.638 6.826C21.425 240.129 66.1 117.385 168.991 69.406c49.842-23.242 105.75-25.684 157.43-6.874l13.672-37.568C278.382 2.503 211.616 5.419 152.095 33.173z"/>
    <g fill="#ff5d7d">
      <path d="M252.867 415.773a10.017 10.017 0 006.274 0c40.466-13.369 75.146-38.77 100.291-73.457 25.234-34.809 38.572-75.838 38.572-118.652v-82.26a10 10 0 00-9.065-9.956c-44.947-4.218-88.251-15.919-128.71-34.777a9.998 9.998 0 00-8.449 0c-40.458 18.858-83.762 30.559-128.709 34.777a10 10 0 00-9.066 9.956v82.26c0 42.814 13.338 83.843 38.572 118.652 25.145 34.687 59.825 60.088 100.29 73.457zM134.005 223.665v-73.253c42.44-4.912 83.418-16.22 122-33.672 38.582 17.452 79.56 28.76 122 33.672v73.253a182.01 182.01 0 01-122 172.051 182.008 182.008 0 01-122-172.051z"/>
      <path d="M491.954 157.016l5.748-2.68a10 10 0 00-.806-18.46l-48.027-17.48c-5.188-1.888-10.929.787-12.816 5.977l-17.48 48.027a9.999 9.999 0 0013.622 12.483l5.349-2.494c18.286 44.971 19.219 94.512 2.45 140.584-17.918 49.227-53.857 88.496-101.199 110.572-47.424 22.112-100.618 24.435-149.784 6.541a10.003 10.003 0 00-12.817 5.977l-13.673 37.568a9.999 9.999 0 005.977 12.817c28.369 10.325 57.855 15.561 87.644 15.56h.014c37.359-.001 73.692-8.111 107.987-24.104 61.941-28.884 108.928-80.161 132.303-144.384 22.228-61.08 20.57-126.922-4.492-186.504zM477.65 336.679c-21.549 59.203-64.862 106.472-121.963 133.099-31.629 14.749-65.117 22.228-99.535 22.229h-.012c-24.151 0-48.105-3.74-71.337-11.127l6.84-18.793c21.136 6.626 42.837 9.926 64.489 9.925 31.096-.001 62.089-6.809 91.113-20.341 52.184-24.333 91.796-67.61 111.54-121.857 19.745-54.248 17.217-112.862-7.116-165.045a9.983 9.983 0 00-7.013-5.562l6.769-18.597 18.598 6.769a9.981 9.981 0 00-.248 8.946c26.626 57.099 29.423 121.15 7.875 180.354zM90.797 328.821a10.003 10.003 0 00-10.982-1.69l-5.346 2.493C35.515 233.718 78.364 122.7 173.217 78.469c47.422-22.112 100.617-24.435 149.784-6.54a10.004 10.004 0 0012.817-5.977l13.673-37.568c1.889-5.189-.787-10.928-5.978-12.817-64.221-23.375-133.702-20.34-195.644 8.543C85.928 52.995 38.942 104.271 15.566 168.494c-22.231 61.08-20.573 126.922 4.489 186.504l-5.747 2.68a9.999 9.999 0 00.806 18.46l48.027 17.48a9.98 9.98 0 003.42.606c4.084 0 7.919-2.522 9.397-6.583l17.48-48.027a10 10 0 00-2.641-10.793zm-30.212 42.584l-18.597-6.769a9.984 9.984 0 00.247-8.946c-26.626-57.1-29.423-121.151-7.875-180.355S99.222 68.863 156.321 42.236c54.069-25.212 114.373-29.057 170.885-11.102l-6.839 18.792c-51.494-16.142-106.374-12.539-155.603 10.416C56.876 110.653 10.031 239.357 60.341 347.247a9.997 9.997 0 007.012 5.562z"/>
    </g>
  </svg>