<svg width="46" height="46" viewBox="0 0 46 46" fill="none" xmlns="http://www.w3.org/2000/svg">
    <circle cx="23" cy="23" r="23" fill="#982C31"/>
    <path d="M30.2499 22.75H24.25V16.75C24.25 16.336 23.914 16 23.4999 16C23.086 16 22.75 16.336 22.75 16.75V22.75H16.75C16.336 22.75 16 23.086 16 23.4999C16 23.914 16.336 24.25 16.75 24.25H22.75V30.2499C22.75 30.664 23.086 31 23.4999 31C23.914 31 24.25 30.664 24.25 30.2499V24.25H30.2499C30.664 24.25 31 23.914 31 23.4999C31 23.086 30.664 22.75 30.2499 22.75Z" fill="white"/>
    </svg>
    