<svg width="70" height="70" viewBox="0 0 70 70" fill="none" xmlns="http://www.w3.org/2000/svg">
<rect x="0.5" y="0.5" width="69" height="69" rx="19.5" fill="#A4A4A4" fill-opacity="0.2" stroke="#982C31"/>
<g clip-path="url(#clip0)">
<path d="M21.25 15C20.835 15 20.425 15.04 20.0325 15.12L20.5175 17.57C20.7588 17.5229 21.0041 17.4994 21.25 17.5H22.395V15H21.25ZM26.98 15H24.6875V17.5H26.98V15ZM31.5625 15H29.27V17.5H31.5625V15ZM36.145 15H33.855V17.5H36.145V15ZM40.73 15H38.4375V17.5H40.73V15ZM45.3125 15H43.02V17.5H45.3125V15ZM48.75 15H47.605V17.5H48.75C49 17.5 49.2475 17.525 49.4825 17.5725L49.9675 15.12C49.5665 15.0404 49.1588 15.0002 48.75 15V15ZM53.9475 17.775C53.4906 17.0936 52.9045 16.5084 52.2225 16.0525L50.8325 18.13C51.2425 18.405 51.595 18.7575 51.87 19.1675L53.945 17.7775L53.9475 17.775ZM17.775 16.0525C17.0936 16.5094 16.5084 17.0955 16.0525 17.7775L18.13 19.1675C18.405 18.7575 18.7575 18.405 19.1675 18.13L17.775 16.055V16.0525ZM55 21.25C55 20.835 54.96 20.425 54.88 20.0325L52.43 20.5175C52.475 20.7525 52.5 20.9975 52.5 21.25V22.395H55V21.25ZM15.12 20.0325C15.0404 20.4335 15.0002 20.8412 15 21.25V22.395H17.5V21.25C17.5 21 17.525 20.7525 17.5725 20.5175L15.12 20.0325ZM15 24.6875V26.98H17.5V24.6875H15ZM55 26.98V24.6875H52.5V26.98H55ZM15 29.27V31.5625H17.5V29.27H15ZM55 31.5625V29.27H52.5V31.5625H55ZM15 33.855V36.145H17.5V33.855H15ZM52.5 36.145H55V33.855H52.5V36.145ZM15 38.4375V40.73H17.5V38.4375H15ZM55 40.73V38.4375H52.5V40.73H55ZM15 43.02V45.3125H17.5V43.02H15ZM55 45.3125V43.02H52.5V45.3125H55ZM15 47.605V48.75C15 49.165 15.04 49.575 15.12 49.9675L17.57 49.4825C17.5229 49.2412 17.4994 48.9959 17.5 48.75V47.605H15ZM55 48.75V47.605H52.5V48.75C52.5 49 52.475 49.2475 52.4275 49.4825L54.88 49.9675C54.96 49.5725 55 49.1675 55 48.75ZM16.0525 52.225C16.51 52.905 17.095 53.49 17.7775 53.9475L19.1675 51.87C18.7571 51.5954 18.4046 51.2429 18.13 50.8325L16.055 52.2225L16.0525 52.225ZM52.225 53.9475C52.905 53.49 53.49 52.905 53.9475 52.2225L51.87 50.8325C51.595 51.2425 51.2425 51.595 50.8325 51.87L52.2225 53.945L52.225 53.9475ZM20.0325 54.88C20.4275 54.96 20.8325 55 21.25 55H22.395V52.5H21.25C21 52.5 20.7525 52.475 20.5175 52.4275L20.0325 54.88ZM48.75 55C49.165 55 49.575 54.96 49.9675 54.88L49.4825 52.43C49.2412 52.4771 48.9959 52.5006 48.75 52.5H47.605V55H48.75ZM24.6875 55H26.98V52.5H24.6875V55ZM29.27 55H31.5625V52.5H29.27V55ZM33.855 52.5V55H36.145V52.5H33.855ZM38.4375 55H40.73V52.5H38.4375V55ZM43.02 55H45.3125V52.5H43.02V55ZM36.25 26.25C36.25 25.9185 36.1183 25.6005 35.8839 25.3661C35.6495 25.1317 35.3315 25 35 25C34.6685 25 34.3505 25.1317 34.1161 25.3661C33.8817 25.6005 33.75 25.9185 33.75 26.25V33.75H26.25C25.9185 33.75 25.6005 33.8817 25.3661 34.1161C25.1317 34.3505 25 34.6685 25 35C25 35.3315 25.1317 35.6495 25.3661 35.8839C25.6005 36.1183 25.9185 36.25 26.25 36.25H33.75V43.75C33.75 44.0815 33.8817 44.3995 34.1161 44.6339C34.3505 44.8683 34.6685 45 35 45C35.3315 45 35.6495 44.8683 35.8839 44.6339C36.1183 44.3995 36.25 44.0815 36.25 43.75V36.25H43.75C44.0815 36.25 44.3995 36.1183 44.6339 35.8839C44.8683 35.6495 45 35.3315 45 35C45 34.6685 44.8683 34.3505 44.6339 34.1161C44.3995 33.8817 44.0815 33.75 43.75 33.75H36.25V26.25Z" fill="#982C31"/>
</g>
<defs>
<clipPath id="clip0">
<rect width="40" height="40" fill="white" transform="translate(15 15)"/>
</clipPath>
</defs>
</svg>
