<svg width="25" height="25" viewBox="0 0 25 25" fill="none" xmlns="http://www.w3.org/2000/svg">
<g clip-path="url(#clip0_449_10)">
<path d="M18.2251 8.17501C18.2251 6.56382 17.5851 5.01862 16.4458 3.87933C15.3065 2.74005 13.7613 2.10001 12.1501 2.10001C10.5389 2.10001 8.99371 2.74005 7.85442 3.87933C6.71514 5.01862 6.0751 6.56382 6.0751 8.17501C6.0751 15.2625 3.0376 17.2875 3.0376 17.2875H21.2626C21.2626 17.2875 18.2251 15.2625 18.2251 8.17501Z" stroke="#9B9898" stroke-width="3" stroke-linecap="round" stroke-linejoin="round"/>
<path d="M13.9017 21.3375C13.7237 21.6444 13.4682 21.8991 13.1608 22.0762C12.8534 22.2532 12.5048 22.3464 12.1501 22.3464C11.7953 22.3464 11.4468 22.2532 11.1394 22.0762C10.8319 21.8991 10.5764 21.6444 10.3984 21.3375" stroke="#9B9898" stroke-width="4" stroke-linecap="round" stroke-linejoin="round"/>
</g>
<defs>
<clipPath id="clip0_449_10">
<rect width="24.3" height="24.3" fill="white" transform="translate(0 0.0750122)"/>
</clipPath>
</defs>
</svg>
