<svg width="48" height="48" viewBox="0 0 48 48" fill="none" xmlns="http://www.w3.org/2000/svg">
    <rect width="48" height="48" rx="4" fill="#982C31"/>
    <path d="M34.8182 18.4801V17.0227C34.8182 15.3533 33.7498 14 32.4318 14H15.3864C14.0684 14 13 15.3533 13 17.0227V18.4801C13 18.6291 13.0954 18.75 13.2131 18.75H34.6051C34.7228 18.75 34.8182 18.6291 34.8182 18.4801Z" fill="white"/>
    <path d="M13 20.7469V29.977C13 31.6465 14.0684 32.9998 15.3864 32.9998H32.4318C33.7498 32.9998 34.8182 31.6465 34.8182 29.977V20.7469C34.8182 20.5979 34.7228 20.4771 34.6051 20.4771H13.2131C13.0954 20.4771 13 20.5979 13 20.7469ZM18.4545 27.818C18.4545 28.2949 18.1493 28.6816 17.7727 28.6816H17.0909C16.7144 28.6816 16.4091 28.2949 16.4091 27.818V26.9543C16.4091 26.4774 16.7144 26.0907 17.0909 26.0907H17.7727C18.1493 26.0907 18.4545 26.4774 18.4545 26.9543V27.818Z" fill="white"/>
    </svg>
    