<svg width="20" height="20" viewBox="0 0 20 20" fill="none" xmlns="http://www.w3.org/2000/svg">
    <path fill-rule="evenodd" clip-rule="evenodd" d="M6.80901 0C5.08448 0.00244399 3.43125 0.707511 2.21178 1.96062C0.992317 3.21374 0.30612 4.91264 0.303633 6.68486V8.41803C0.303418 8.50007 0.318957 8.58133 0.349357 8.65719C0.379758 8.73304 0.424425 8.802 0.480797 8.86009C0.53717 8.91818 0.604142 8.96426 0.677875 8.99571C0.751609 9.02716 0.830655 9.04333 0.910486 9.04333H8.49512C8.57495 9.04333 8.65399 9.02716 8.72773 8.99571C8.80146 8.96426 8.86843 8.91818 8.9248 8.86009C8.98118 8.802 9.02584 8.73304 9.05624 8.65719C9.08665 8.58133 9.10218 8.50007 9.10197 8.41803V0.623642C9.10186 0.458316 9.03788 0.2998 8.92408 0.182936C8.81029 0.0660728 8.65599 0.000422892 8.49512 0.00042293L6.80901 0ZM11.5057 0C11.3448 -3.74849e-08 11.1905 0.0656499 11.0767 0.182513C10.9629 0.299377 10.8989 0.457893 10.8988 0.623219V8.41803C10.8986 8.50007 10.9141 8.58133 10.9445 8.65719C10.9749 8.73304 11.0196 8.802 11.076 8.86009C11.1324 8.91818 11.1993 8.96426 11.2731 8.99571C11.3468 9.02716 11.4258 9.04333 11.5057 9.04333H19.0907C19.1705 9.04333 19.2496 9.02716 19.3233 8.99571C19.3971 8.96426 19.464 8.91818 19.5204 8.86009C19.5768 8.802 19.6214 8.73304 19.6518 8.65719C19.6822 8.58133 19.6978 8.50007 19.6976 8.41803V6.68486C19.6951 4.91264 19.0089 3.21374 17.7894 1.96062C16.5699 0.707511 14.9167 0.00244399 13.1922 0H11.5057ZM6.80901 1.24812H7.88908V7.79523H1.51611V6.68486C1.51498 5.97036 1.65113 5.26266 1.91675 4.60236C2.18238 3.94205 2.57224 3.34212 3.06399 2.83701C3.55574 2.3319 4.13969 1.93153 4.78235 1.65887C5.42501 1.38621 6.11373 1.24662 6.80901 1.24812ZM12.1121 1.24812H13.1922C13.8874 1.24662 14.5761 1.3862 15.2188 1.65883C15.8614 1.93147 16.4453 2.3318 16.9371 2.83687C17.4288 3.34194 17.8187 3.9418 18.0843 4.60206C18.35 5.26232 18.4862 5.96997 18.4851 6.68444V7.79481H12.1121V1.24812ZM0.910077 10.9567C0.830246 10.9567 0.7512 10.9728 0.677467 11.0043C0.603733 11.0357 0.536762 11.0818 0.480389 11.1399C0.424016 11.198 0.37935 11.2669 0.348949 11.3428C0.318548 11.4187 0.30301 11.4999 0.303225 11.582V13.3151C0.305711 15.0874 0.991908 16.7863 2.21138 18.0394C3.43084 19.2925 5.08407 19.9975 6.8086 20H8.49512C8.65592 20 8.81015 19.9344 8.92394 19.8176C9.03772 19.7009 9.10175 19.5424 9.10197 19.3772V11.582C9.10218 11.4999 9.08665 11.4187 9.05624 11.3428C9.02584 11.2669 8.98118 11.198 8.9248 11.1399C8.86843 11.0818 8.80146 11.0357 8.72773 11.0043C8.65399 10.9728 8.57495 10.9567 8.49512 10.9567H0.910077ZM15.2972 10.9567C14.427 10.9567 13.5763 11.222 12.8528 11.7189C12.1293 12.2158 11.5654 12.9219 11.2324 13.7482C10.8995 14.5744 10.8124 15.4835 10.9822 16.3606C11.1519 17.2376 11.571 18.0433 12.1863 18.6756C12.8016 19.308 13.5856 19.7386 14.4391 19.9131C15.2926 20.0876 16.1772 19.9981 16.9812 19.6559C17.7852 19.3137 18.4724 18.7342 18.9559 17.9907C19.4394 17.2472 19.6975 16.373 19.6976 15.4787C19.697 14.2796 19.2332 13.1297 18.4081 12.2818C17.583 11.4338 16.4641 10.9572 15.2972 10.9567ZM1.51611 12.2052H7.88908V18.7519H6.80901C6.11376 18.7533 5.42509 18.6136 4.78248 18.3409C4.13987 18.0682 3.55596 17.6678 3.06423 17.1627C2.57251 16.6576 2.18263 16.0578 1.91697 15.3975C1.65131 14.7373 1.51509 14.0296 1.51611 13.3151V12.2052ZM15.2972 12.2052C15.9271 12.2053 16.5429 12.3973 17.0666 12.757C17.5903 13.1167 17.9985 13.6279 18.2395 14.226C18.4805 14.8241 18.5435 15.4822 18.4206 16.1171C18.2976 16.752 17.9942 17.3352 17.5488 17.7929C17.1033 18.2507 16.5358 18.5623 15.918 18.6886C15.3002 18.8149 14.6598 18.75 14.0778 18.5023C13.4958 18.2545 12.9984 17.835 12.6485 17.2967C12.2985 16.7585 12.1117 16.1257 12.1117 15.4783C12.1093 15.0478 12.19 14.621 12.3492 14.2227C12.5085 13.8244 12.743 13.4626 13.0393 13.1581C13.3356 12.8537 13.6877 12.6127 14.0753 12.4491C14.4629 12.2855 14.8782 12.2026 15.2972 12.2052Z" fill="#707070" />
</svg>
    