<svg width="34" height="34" viewBox="0 0 34 34" fill="none" xmlns="http://www.w3.org/2000/svg">
    <circle cx="17" cy="17" r="17" fill="#FFDEC0"/>
    <path d="M23.663 14.9307H15.4209C15.2774 14.9307 15.1611 15.047 15.1611 15.1904C15.1611 15.3338 15.2774 15.4501 15.4209 15.4501H23.663C23.8064 15.4501 23.9227 15.3338 23.9227 15.1904C23.9227 15.047 23.8064 14.9307 23.663 14.9307Z" fill="#982C31"/>
    <path d="M23.663 16.916H15.4209C15.2774 16.916 15.1611 17.0323 15.1611 17.1757C15.1611 17.3192 15.2774 17.4355 15.4209 17.4355H23.663C23.8064 17.4355 23.9227 17.3192 23.9227 17.1757C23.9227 17.0323 23.8064 16.916 23.663 16.916Z" fill="#982C31"/>
    <path d="M23.663 18.9023H15.4209C15.2774 18.9023 15.1611 19.0186 15.1611 19.1621C15.1611 19.3055 15.2774 19.4218 15.4209 19.4218H23.663C23.8064 19.4218 23.9227 19.3055 23.9227 19.1621C23.9227 19.0186 23.8064 18.9023 23.663 18.9023Z" fill="#982C31"/>
    <path d="M24.4878 12.6592H14.5956C13.7626 12.6592 13.085 13.3368 13.085 14.1698V20.3901C13.085 21.2231 13.7626 21.9008 14.5956 21.9008H21.5291C21.6032 21.9008 21.6721 21.9341 21.7181 21.9923L23.9571 24.827C24.0454 24.9387 24.1741 24.9996 24.309 24.9996C24.3591 24.9996 24.41 24.9911 24.46 24.9738C24.6445 24.9097 24.7637 24.7421 24.7637 24.5468V21.875C25.4641 21.7441 25.9984 21.1249 25.9984 20.3901V14.1698C25.9984 13.3368 25.3208 12.6592 24.4878 12.6592ZM25.479 20.3901C25.479 20.9296 25.0401 21.374 24.5006 21.3809C24.3585 21.3827 24.2442 21.4985 24.2442 21.6406V24.3524L22.1257 21.6703C21.9807 21.4866 21.7632 21.3813 21.5291 21.3813H14.5956C14.0491 21.3813 13.6044 20.9366 13.6044 20.3901V14.1698C13.6044 13.6233 14.049 13.1786 14.5956 13.1786H24.4878C25.0343 13.1786 25.479 13.6233 25.479 14.1698V20.3901Z" fill="#982C31"/>
    <path d="M12.0941 16.9542C11.9164 16.9795 11.7573 17.0709 11.6461 17.2117L9.86187 19.4705V17.2067C9.86187 17.0645 9.74759 16.9488 9.60547 16.947C9.15419 16.9412 8.78704 16.5694 8.78704 16.1181V10.7032C8.78704 10.246 9.15904 9.87395 9.61627 9.87395H18.2277C18.6849 9.87395 19.0569 10.246 19.0569 10.7032V11.7051C19.0569 11.8486 19.1732 11.9649 19.3166 11.9649C19.4601 11.9649 19.5763 11.8486 19.5763 11.7051V10.7032C19.5763 9.95953 18.9713 9.35449 18.2277 9.35449H9.61627C8.87261 9.35449 8.26758 9.95953 8.26758 10.7032V16.1181C8.26758 16.7645 8.73063 17.3107 9.34245 17.4383V19.7366C9.34245 19.9212 9.45507 20.0795 9.6294 20.1401C9.67667 20.1565 9.7248 20.1644 9.77218 20.1644C9.89952 20.1644 10.0212 20.1069 10.1046 20.0014L12.0538 17.5337C12.0819 17.4981 12.1222 17.4749 12.1671 17.4685C12.3091 17.4484 12.4079 17.3169 12.3877 17.1749C12.3676 17.0329 12.2363 16.934 12.0941 16.9542Z" fill="#982C31"/>
    </svg>
    