<svg width="88" height="88" viewBox="0 0 88 88" fill="none" xmlns="http://www.w3.org/2000/svg">
  <g filter="url(#filter0_d)">
  <circle cx="44" cy="40" r="40" fill="#EBE4DD"/>
  </g>
  <path d="M23.0728 66V56.7578H25.6816C26.4857 56.7578 27.1966 56.9355 27.8145 57.291C28.4323 57.6465 28.9084 58.1522 29.2427 58.8081C29.5812 59.464 29.7526 60.2173 29.7568 61.0679V61.6582C29.7568 62.5299 29.5876 63.2938 29.249 63.9497C28.9147 64.6056 28.4344 65.1092 27.8081 65.4604C27.186 65.8117 26.4603 65.9915 25.6309 66H23.0728ZM24.2915 57.7607V65.0034H25.5737C26.5132 65.0034 27.2432 64.7114 27.7637 64.1274C28.2884 63.5435 28.5508 62.7119 28.5508 61.6328V61.0933C28.5508 60.0438 28.3032 59.2292 27.8081 58.6494C27.3172 58.0654 26.619 57.7692 25.7134 57.7607H24.2915ZM34.27 66.127C33.339 66.127 32.5815 65.8223 31.9976 65.2129C31.4136 64.5993 31.1216 63.7804 31.1216 62.7563V62.5405C31.1216 61.8592 31.2507 61.252 31.5088 60.7188C31.7712 60.1813 32.1351 59.7624 32.6006 59.4619C33.0703 59.1572 33.5781 59.0049 34.124 59.0049C35.0169 59.0049 35.7109 59.299 36.2061 59.8872C36.7012 60.4754 36.9487 61.3175 36.9487 62.4136V62.9023H32.2959C32.3128 63.5794 32.5096 64.1274 32.8862 64.5464C33.2671 64.9611 33.7495 65.1685 34.3335 65.1685C34.7482 65.1685 35.0994 65.0838 35.3872 64.9146C35.675 64.7453 35.9268 64.521 36.1426 64.2417L36.8599 64.8003C36.2843 65.6847 35.4211 66.127 34.27 66.127ZM34.124 59.9697C33.6501 59.9697 33.2523 60.1432 32.9307 60.4902C32.609 60.833 32.4102 61.3154 32.334 61.9375H35.7744V61.8486C35.7406 61.252 35.5798 60.7907 35.292 60.4648C35.0042 60.1348 34.6149 59.9697 34.124 59.9697ZM44.1152 62.6421C44.1152 63.6873 43.8761 64.5295 43.3979 65.1685C42.9198 65.8075 42.2723 66.127 41.4556 66.127C40.6219 66.127 39.966 65.8625 39.4878 65.3335V68.6406H38.3135V59.1318H39.3862L39.4434 59.8936C39.9215 59.3011 40.5859 59.0049 41.4365 59.0049C42.2617 59.0049 42.9134 59.3159 43.3916 59.938C43.874 60.5601 44.1152 61.4255 44.1152 62.5342V62.6421ZM42.9409 62.5088C42.9409 61.7344 42.7759 61.1229 42.4458 60.6743C42.1157 60.2257 41.6629 60.0015 41.0874 60.0015C40.3765 60.0015 39.8433 60.3167 39.4878 60.9473V64.229C39.839 64.8553 40.3765 65.1685 41.1001 65.1685C41.6629 65.1685 42.1094 64.9463 42.4395 64.502C42.7738 64.0534 42.9409 63.389 42.9409 62.5088ZM45.3022 62.5024C45.3022 61.8296 45.4334 61.2244 45.6958 60.687C45.9624 60.1496 46.3306 59.7349 46.8003 59.4429C47.2743 59.1509 47.8138 59.0049 48.4189 59.0049C49.3542 59.0049 50.1095 59.3286 50.6851 59.9761C51.2648 60.6235 51.5547 61.4847 51.5547 62.5596V62.6421C51.5547 63.3107 51.4256 63.9116 51.1675 64.4448C50.9136 64.9738 50.5475 65.3864 50.0693 65.6826C49.5954 65.9788 49.0495 66.127 48.4316 66.127C47.5007 66.127 46.7453 65.8032 46.1655 65.1558C45.59 64.5083 45.3022 63.6514 45.3022 62.585V62.5024ZM46.4829 62.6421C46.4829 63.4038 46.6585 64.0153 47.0098 64.4766C47.3652 64.9378 47.8392 65.1685 48.4316 65.1685C49.0283 65.1685 49.5023 64.9357 49.8535 64.4702C50.2048 64.0005 50.3804 63.3446 50.3804 62.5024C50.3804 61.7492 50.2005 61.1398 49.8408 60.6743C49.4854 60.2046 49.0114 59.9697 48.4189 59.9697C47.8392 59.9697 47.3716 60.2004 47.0161 60.6616C46.6606 61.1229 46.4829 61.783 46.4829 62.6421ZM57.0264 64.1782C57.0264 63.8608 56.9058 63.6154 56.6646 63.4419C56.4276 63.2642 56.0107 63.1118 55.4141 62.9849C54.8216 62.8579 54.3498 62.7056 53.9985 62.5278C53.6515 62.3501 53.3934 62.1385 53.2241 61.8931C53.0591 61.6476 52.9766 61.3556 52.9766 61.0171C52.9766 60.4543 53.2135 59.9782 53.6875 59.5889C54.1657 59.1995 54.7751 59.0049 55.5156 59.0049C56.2943 59.0049 56.9248 59.2059 57.4072 59.6079C57.8939 60.0099 58.1372 60.5241 58.1372 61.1504H56.9565C56.9565 60.8288 56.819 60.5516 56.5439 60.3188C56.2731 60.0861 55.9303 59.9697 55.5156 59.9697C55.0882 59.9697 54.7539 60.0628 54.5127 60.249C54.2715 60.4352 54.1509 60.6785 54.1509 60.979C54.1509 61.2625 54.263 61.4762 54.4873 61.6201C54.7116 61.764 55.1157 61.9015 55.6997 62.0327C56.2879 62.1639 56.764 62.3205 57.1279 62.5024C57.4919 62.6844 57.7606 62.9045 57.9341 63.1626C58.1118 63.4165 58.2007 63.7275 58.2007 64.0957C58.2007 64.7093 57.9552 65.2023 57.4644 65.5747C56.9735 65.9429 56.3366 66.127 55.5537 66.127C55.0036 66.127 54.5169 66.0296 54.0938 65.835C53.6706 65.6403 53.3384 65.3695 53.0972 65.0225C52.8602 64.6712 52.7417 64.2925 52.7417 63.8862H53.916C53.9372 64.2798 54.0938 64.5929 54.3857 64.8257C54.682 65.0542 55.0713 65.1685 55.5537 65.1685C55.998 65.1685 56.3535 65.0796 56.6201 64.9019C56.891 64.7199 57.0264 64.4787 57.0264 64.1782ZM61.0063 66H59.832V59.1318H61.0063V66ZM59.7368 57.3101C59.7368 57.1196 59.7939 56.9588 59.9082 56.8276C60.0267 56.6965 60.2002 56.6309 60.4287 56.6309C60.6572 56.6309 60.8307 56.6965 60.9492 56.8276C61.0677 56.9588 61.127 57.1196 61.127 57.3101C61.127 57.5005 61.0677 57.6592 60.9492 57.7861C60.8307 57.9131 60.6572 57.9766 60.4287 57.9766C60.2002 57.9766 60.0267 57.9131 59.9082 57.7861C59.7939 57.6592 59.7368 57.5005 59.7368 57.3101ZM64.4849 57.4688V59.1318H65.7671V60.0396H64.4849V64.2988C64.4849 64.5739 64.542 64.7812 64.6562 64.9209C64.7705 65.0563 64.9652 65.124 65.2402 65.124C65.3757 65.124 65.5618 65.0986 65.7988 65.0479V66C65.4899 66.0846 65.1895 66.127 64.8975 66.127C64.3727 66.127 63.9771 65.9683 63.7104 65.6509C63.4438 65.3335 63.3105 64.8828 63.3105 64.2988V60.0396H62.0601V59.1318H63.3105V57.4688H64.4849Z" fill="#982C31"/>
  <path d="M35 30V23C35 21.8954 35.8954 21 37 21H49C50.1046 21 51 21.8954 51 23V30" stroke="#982C31" stroke-width="3" stroke-linecap="round" stroke-linejoin="round"/>
  <path d="M43.7071 30.2929C43.3166 29.9024 42.6834 29.9024 42.2929 30.2929L35.9289 36.6569C35.5384 37.0474 35.5384 37.6805 35.9289 38.0711C36.3195 38.4616 36.9526 38.4616 37.3431 38.0711L43 32.4142L48.6569 38.0711C49.0474 38.4616 49.6805 38.4616 50.0711 38.0711C50.4616 37.6805 50.4616 37.0474 50.0711 36.6569L43.7071 30.2929ZM44 47V31H42V47H44Z" fill="#982C31"/>
  <defs>
  <filter id="filter0_d" x="0" y="0" width="88" height="88" filterUnits="userSpaceOnUse" color-interpolation-filters="sRGB">
  <feFlood flood-opacity="0" result="BackgroundImageFix"/>
  <feColorMatrix in="SourceAlpha" type="matrix" values="0 0 0 0 0 0 0 0 0 0 0 0 0 0 0 0 0 0 127 0"/>
  <feOffset dy="4"/>
  <feGaussianBlur stdDeviation="2"/>
  <feColorMatrix type="matrix" values="0 0 0 0 0 0 0 0 0 0 0 0 0 0 0 0 0 0 0.4 0"/>
  <feBlend mode="normal" in2="BackgroundImageFix" result="effect1_dropShadow"/>
  <feBlend mode="normal" in="SourceGraphic" in2="effect1_dropShadow" result="shape"/>
  </filter>
  </defs>
  </svg>
  