<svg width="21" height="20" viewBox="0 0 21 20" fill="none" xmlns="http://www.w3.org/2000/svg">
    <path d="M2.15597 11.1676C2.26251 11.2774 2.33514 11.4156 2.36515 11.5656C2.39516 11.7157 2.38128 11.8712 2.32518 12.0136L1.64836 13.2995C1.57435 13.432 1.53246 13.5799 1.52603 13.7315C1.51961 13.8831 1.54884 14.0341 1.61138 14.1723C1.67391 14.3106 1.76801 14.4322 1.8861 14.5275C2.0042 14.6227 2.14299 14.689 2.29133 14.7208L3.71265 15.0592C3.85814 15.1085 3.98647 15.1985 4.08243 15.3184C4.17839 15.4384 4.23796 15.5833 4.2541 15.7361V17.1912C4.25628 17.4529 4.35236 17.7051 4.52483 17.9019C4.64637 18.0237 4.79879 18.1101 4.96573 18.1518C5.13266 18.1935 5.30781 18.189 5.47237 18.1388L6.89368 17.8003C7.04616 17.7711 7.20399 17.7915 7.34405 17.8585C7.48411 17.9255 7.59905 18.0356 7.67202 18.1726L8.34884 19.4585C8.42645 19.6179 8.54648 19.7527 8.69574 19.8482C8.84499 19.9437 9.01769 19.9962 9.19486 20C9.44511 19.9914 9.68449 19.8956 9.87167 19.7293L10.9546 18.7817C11.0833 18.6963 11.2317 18.6452 11.3857 18.6334C11.5397 18.6215 11.6942 18.6493 11.8344 18.7141L13.0189 19.5262C13.1819 19.6574 13.3849 19.7291 13.5942 19.7293C13.7908 19.7325 13.9832 19.6715 14.142 19.5554C14.3008 19.4394 14.4174 19.2747 14.474 19.0863L14.9816 17.7327C15.0452 17.5915 15.1508 17.4734 15.2841 17.3946C15.4174 17.3159 15.5718 17.2803 15.7261 17.2927L17.1813 17.4619C17.3365 17.4848 17.4949 17.4689 17.6425 17.4158C17.7901 17.3627 17.9223 17.2739 18.0273 17.1574C18.1177 17.0506 18.1854 16.9265 18.2261 16.7927C18.2669 16.6588 18.2798 16.5181 18.2642 16.379L18.095 14.9239C18.0825 14.7696 18.1181 14.6152 18.1969 14.4819C18.2757 14.3486 18.3937 14.2429 18.5349 14.1794L19.8885 13.6718C20.0295 13.6228 20.1574 13.5425 20.2629 13.437C20.3684 13.3315 20.4487 13.2035 20.4977 13.0626C20.5418 12.9207 20.5526 12.7705 20.5291 12.6238C20.5056 12.477 20.4485 12.3377 20.3623 12.2166L19.5501 11.0322C19.4697 10.8963 19.433 10.739 19.4451 10.5816C19.4572 10.4241 19.5175 10.2743 19.6178 10.1523L20.5654 9.06942C20.6659 8.96219 20.7398 8.83277 20.7809 8.69166C20.8221 8.55054 20.8294 8.40171 20.8023 8.25724C20.7749 8.10849 20.7112 7.96882 20.6167 7.85072C20.5222 7.73261 20.3999 7.63975 20.2608 7.58043L18.9748 6.90361C18.8403 6.82795 18.7323 6.7126 18.6656 6.5733C18.599 6.43401 18.577 6.27755 18.6026 6.12527L18.941 4.70396C18.9739 4.55898 18.9759 4.40867 18.9467 4.26288C18.9176 4.11709 18.858 3.9791 18.7718 3.85794C18.68 3.73962 18.5618 3.64437 18.4267 3.57975C18.2915 3.51513 18.1432 3.48292 17.9935 3.48569H16.5383C16.3821 3.48094 16.2316 3.42557 16.1095 3.32792C15.9875 3.23027 15.9004 3.09563 15.8615 2.94424L15.5231 1.52292C15.4788 1.31311 15.3639 1.12479 15.1977 0.989336C15.0315 0.853877 14.8238 0.779443 14.6094 0.778426C14.441 0.77105 14.2747 0.818553 14.1356 0.913789L12.8497 1.59061C12.7091 1.65645 12.5511 1.67554 12.3988 1.64509C12.2466 1.61465 12.1081 1.53626 12.0036 1.4214L11.0561 0.338496C10.9646 0.230736 10.8504 0.144524 10.7217 0.0860237C10.593 0.0275231 10.453 -0.00182167 10.3116 8.75302e-05C10.1516 0.00632736 9.99512 0.04924 9.85431 0.125516C9.71349 0.201791 9.59207 0.309391 9.49942 0.440018L8.6534 1.62445C8.55391 1.74685 8.42092 1.83764 8.27069 1.88572C8.12045 1.93379 7.95946 1.93708 7.80738 1.89517L6.45375 1.38756C6.33249 1.35158 6.20767 1.32889 6.0815 1.31988C5.84376 1.32681 5.61663 1.41985 5.44234 1.58169C5.26805 1.74353 5.15847 1.96316 5.13396 2.19974L4.96476 3.55337C4.93727 3.70483 4.86423 3.84429 4.75539 3.95313C4.64654 4.06198 4.50708 4.13502 4.35562 4.16251L2.90047 4.33171C2.75257 4.34912 2.60994 4.39725 2.48174 4.47301C2.35353 4.54877 2.24257 4.65049 2.15597 4.77164C2.08638 4.90016 2.04441 5.04181 2.03276 5.1875C2.0211 5.33319 2.04002 5.47971 2.08829 5.61766L2.5959 6.97129C2.63781 7.12337 2.63452 7.28435 2.58645 7.43459C2.53837 7.58483 2.44758 7.71782 2.32518 7.81731L1.14075 8.62949C1.01455 8.7108 0.909072 8.82045 0.832699 8.94969C0.756327 9.07894 0.711168 9.22422 0.700817 9.37399C0.687551 9.52168 0.711583 9.67035 0.77071 9.80634C0.829837 9.94233 0.922165 10.0613 1.03923 10.1523L2.15597 11.1676ZM1.54684 9.23863L2.73127 8.42645C2.9788 8.24585 3.16175 7.9905 3.25314 7.69804C3.34454 7.40558 3.33954 7.09149 3.23888 6.80209L2.73127 5.44846C2.69729 5.36141 2.69729 5.26477 2.73127 5.17773C2.75628 5.13715 2.79107 5.1035 2.83245 5.07985C2.87384 5.0562 2.9205 5.04332 2.96815 5.04237L4.42331 4.87316C4.72856 4.82371 5.01051 4.67942 5.22917 4.46076C5.44783 4.2421 5.59212 3.96015 5.64157 3.65489L5.81078 2.19974C5.84462 1.96285 6.01382 1.86133 6.21687 1.96285L7.5705 2.47047C7.86079 2.56054 8.1716 2.56022 8.46171 2.46956C8.75182 2.3789 9.00751 2.20219 9.19486 1.96285L10.0409 0.778426C10.0642 0.737676 10.0972 0.703289 10.1369 0.678302C10.1766 0.653314 10.2219 0.638494 10.2687 0.635149C10.3156 0.631805 10.3625 0.640039 10.4054 0.659125C10.4483 0.678211 10.4858 0.707561 10.5146 0.744585L11.4622 1.82749C11.5975 1.96885 11.7605 2.08085 11.941 2.15653C12.1215 2.23222 12.3156 2.26996 12.5113 2.26742C12.7229 2.27883 12.9335 2.23201 13.1204 2.13206L14.4063 1.45524C14.4467 1.42799 14.4934 1.41161 14.542 1.40769C14.5905 1.40376 14.6393 1.41242 14.6835 1.43284C14.7277 1.45325 14.7659 1.48472 14.7945 1.52421C14.823 1.56371 14.8408 1.60988 14.8463 1.65829L15.1847 3.0796C15.2699 3.37539 15.447 3.63642 15.6903 3.82498C15.9337 4.01355 16.2306 4.1199 16.5383 4.12867H17.9935C18.0383 4.1239 18.0837 4.13073 18.1252 4.1485C18.1666 4.16628 18.2029 4.19441 18.2304 4.23019C18.261 4.2675 18.2804 4.31274 18.2864 4.36066C18.2924 4.40857 18.2847 4.4572 18.2642 4.50091L17.9258 5.92223C17.8646 6.2235 17.9004 6.53641 18.0281 6.81607C18.1558 7.09573 18.3687 7.32776 18.6364 7.4789L19.9224 8.15572C20.0239 8.2234 20.0916 8.29108 20.0916 8.35877C20.0829 8.45654 20.0478 8.55012 19.9901 8.62949L19.0425 9.7124C18.8461 9.94613 18.7302 10.2369 18.7119 10.5416C18.6936 10.8464 18.774 11.1489 18.941 11.4044L19.7532 12.5889C19.8035 12.6698 19.8272 12.7645 19.8209 12.8596C19.7714 12.9433 19.7016 13.0132 19.6178 13.0626L18.2642 13.5702C17.9792 13.684 17.739 13.8877 17.5802 14.1503C17.4215 14.4129 17.3527 14.7201 17.3843 15.0254L17.5535 16.4806C17.5606 16.5279 17.5582 16.5762 17.5466 16.6227C17.535 16.6691 17.5144 16.7128 17.4859 16.7513C17.4516 16.7868 17.4081 16.812 17.3602 16.8239C17.3123 16.8359 17.2621 16.8342 17.2151 16.819L15.76 16.6498C15.4547 16.6181 15.1475 16.6869 14.8849 16.8457C14.6222 17.0045 14.4186 17.2446 14.3048 17.5296L13.7972 18.8833C13.7867 18.9287 13.7645 18.9706 13.7327 19.0047C13.701 19.0388 13.6608 19.064 13.6162 19.0777C13.5717 19.0914 13.5243 19.0932 13.4789 19.0828C13.4334 19.0724 13.3915 19.0503 13.3573 19.0186L12.1728 18.2064C11.9144 18.048 11.6135 17.9727 11.3108 17.9909C11.0082 18.009 10.7185 18.1197 10.4808 18.308L9.3979 19.2555C9.36353 19.2889 9.32145 19.3133 9.27539 19.3265C9.22934 19.3397 9.18074 19.3414 9.13389 19.3314C9.08703 19.3213 9.04338 19.2999 9.00679 19.2689C8.97021 19.238 8.94181 19.1985 8.92413 19.154L8.24731 17.868C8.12157 17.6456 7.93988 17.4599 7.72025 17.3293C7.50063 17.1987 7.25069 17.1278 6.99521 17.1235C6.89251 17.118 6.78962 17.1295 6.69064 17.1574L5.26933 17.4958C5.21717 17.513 5.16133 17.5158 5.10772 17.5039C5.0541 17.492 5.00471 17.4658 4.96476 17.4281C4.93651 17.3962 4.91577 17.3583 4.90406 17.3173C4.89235 17.2763 4.88996 17.2332 4.89708 17.1912V15.7361C4.88328 15.4298 4.77504 15.1352 4.58722 14.8929C4.3994 14.6505 4.14119 14.4722 3.84801 14.3824L2.4267 14.044C2.32892 14.0202 2.24409 13.9596 2.18981 13.8748C2.17098 13.8307 2.16419 13.7824 2.17014 13.7349C2.17608 13.6873 2.19455 13.6422 2.22365 13.6041L2.90047 12.3181C3.02964 12.039 3.0697 11.7268 3.0152 11.4241C2.96071 11.1213 2.81431 10.8427 2.5959 10.6261L1.513 9.64472C1.44334 9.58255 1.39583 9.4994 1.37763 9.40783C1.37763 9.34015 1.44531 9.30631 1.54684 9.23863Z" fill="#BC0018" />
    <path d="M9.2142 13.5364L13.0098 6.83353L12.2436 6.42981L8.4873 13.1729L9.2142 13.5364Z" fill="#BC0018" />
    <path d="M7.11445 9.74078C7.28576 9.89776 7.47554 10.0333 7.67959 10.1445C7.9091 10.245 8.156 10.2998 8.40649 10.3059C8.65859 10.315 8.90883 10.2594 9.13339 10.1445C9.34594 10.0474 9.53781 9.91038 9.69853 9.74078C9.85551 9.56946 9.99108 9.37968 10.1023 9.17564C10.2028 8.94612 10.2576 8.69922 10.2637 8.44874C10.2684 8.19705 10.2131 7.94786 10.1023 7.72184C10.0012 7.51163 9.86462 7.32044 9.69853 7.15669C9.52721 6.99971 9.33744 6.86414 9.13339 6.75297C8.90248 6.6568 8.6564 6.60215 8.40649 6.59155C8.16691 6.57766 7.92846 6.63374 7.7202 6.75297C7.50186 6.83972 7.3079 6.97828 7.15505 7.15669C6.99807 7.32801 6.8625 7.51779 6.75133 7.72184C6.63207 7.94482 6.57624 8.19623 6.58991 8.44874C6.58519 8.70042 6.64052 8.94961 6.75133 9.17564C6.84306 9.38132 6.96549 9.57187 7.11445 9.74078ZM7.80108 7.80271C7.96457 7.64752 8.1814 7.56099 8.40683 7.56099C8.63225 7.56099 8.84908 7.64752 9.01258 7.80271C9.09576 7.88756 9.16028 7.98886 9.20201 8.10011C9.24374 8.21137 9.26174 8.33011 9.25488 8.44874C9.25424 8.68644 9.16812 8.91598 9.01224 9.09543C8.84874 9.25063 8.63191 9.33715 8.40649 9.33715C8.18106 9.33715 7.96423 9.25063 7.80074 9.09543C7.64432 8.91656 7.55812 8.68702 7.55812 8.44941C7.55812 8.2118 7.64432 7.98226 7.80074 7.80339L7.80108 7.80271Z" fill="#BC0018" />
    <path d="M11.7978 10.2251C11.6409 10.3964 11.5053 10.5862 11.3941 10.7902C11.2936 11.0197 11.2388 11.2666 11.2327 11.5171C11.228 11.7688 11.2833 12.018 11.3941 12.244C11.4903 12.4691 11.6271 12.6744 11.7978 12.8498C11.9692 13.0068 12.1589 13.1423 12.363 13.2535C12.5939 13.3497 12.84 13.4043 13.0899 13.4149C13.3416 13.4196 13.5908 13.3643 13.8168 13.2535C14.0351 13.1668 14.2291 13.0282 14.3819 12.8498C14.5483 12.671 14.6846 12.4664 14.7856 12.244C14.8818 12.0131 14.9365 11.767 14.9471 11.5171C14.9518 11.2654 14.8965 11.0163 14.7856 10.7902C14.6989 10.5719 14.5603 10.3779 14.3819 10.2251C14.2106 10.0681 14.0208 9.93254 13.8168 9.82137C13.5873 9.72086 13.3404 9.66603 13.0899 9.65995C12.8382 9.65522 12.589 9.71056 12.363 9.82137C12.1528 9.92242 11.9616 10.059 11.7978 10.2251ZM13.0899 10.6288C13.202 10.6257 13.3137 10.6456 13.4178 10.6873C13.522 10.7289 13.6166 10.7915 13.6956 10.8711C13.7788 10.956 13.8433 11.0573 13.8851 11.1685C13.9268 11.2798 13.9448 11.3985 13.9379 11.5171C13.9443 11.7558 13.8574 11.9876 13.6956 12.1632C13.5321 12.3183 13.3153 12.4049 13.0899 12.4049C12.8645 12.4049 12.6476 12.3183 12.4841 12.1632C12.3224 11.9876 12.2354 11.7558 12.2418 11.5171C12.2428 11.2797 12.329 11.0506 12.4848 10.8714C12.5581 10.7845 12.6517 10.7169 12.7572 10.6746C12.8628 10.6324 12.9772 10.6168 13.0902 10.6291L13.0899 10.6288Z" fill="#BC0018" />
</svg>
    