<svg width="48" height="48" viewBox="0 0 48 48" fill="none" xmlns="http://www.w3.org/2000/svg">
    <rect width="48" height="48" rx="9" fill="#982C31"/>
    <path d="M34.3018 18.6553V21.8991L36.3619 20.3688L34.3018 18.6553Z" fill="white"/>
    <path d="M25.6098 11.4545C24.8839 10.8529 23.8309 10.8463 23.105 11.448L22.2744 12.1543H26.4535L25.6098 11.4545Z" fill="white"/>
    <path d="M26.3097 29.4724C25.7472 29.891 25.0671 30.1199 24.3673 30.1133C23.6675 30.1133 22.9808 29.891 22.4184 29.4724L12 21.6963V35.0315C11.9935 36.1106 12.8633 36.9935 13.9424 37H34.7725C35.8516 36.9935 36.7215 36.1106 36.7149 35.0315V21.6963L26.3097 29.4724Z" fill="white"/>
    <path d="M12.3594 20.3685L14.3541 21.8531V18.7139L12.3594 20.3685Z" fill="white"/>
    <path d="M15.6621 13.4619V22.8273L23.1832 28.4256C23.883 28.9357 24.8444 28.9357 25.5441 28.4256L32.9933 22.8731V13.4619H15.6621ZM20.3056 18.694H23.8372C24.1969 18.694 24.4912 18.9883 24.4912 19.348C24.4912 19.7077 24.1969 20.002 23.8372 20.002H20.3056C19.9458 20.002 19.6515 19.7077 19.6515 19.348C19.6515 18.9883 19.9458 18.694 20.3056 18.694ZM28.4152 23.272H20.3056C19.9458 23.272 19.6515 22.9777 19.6515 22.618C19.6515 22.2583 19.9458 21.964 20.3056 21.964H28.4152C28.7749 21.964 29.0692 22.2583 29.0692 22.618C29.0692 22.9777 28.7749 23.272 28.4152 23.272Z" fill="white"/>
    </svg>
    