<svg width="48" height="48" viewBox="0 0 48 48" fill="none" xmlns="http://www.w3.org/2000/svg">
    <rect width="48" height="48" rx="9" fill="#982C31"/>
    <path d="M36.4365 19.2C36.4365 18.0929 36.2188 17.0201 35.7928 16.0064C35.3792 15.03 34.7884 14.1531 34.0359 13.4006C33.2833 12.6481 32.4064 12.0573 31.43 11.6437C30.4194 11.2146 29.3435 11 28.2365 11C27.1295 11 26.0567 11.2177 25.043 11.6437C24.0666 12.0573 23.1896 12.6481 22.4371 13.4006C21.6846 14.1531 21.0938 15.03 20.6802 16.0064C20.2511 17.017 20.0365 18.0929 20.0365 19.2C20.0365 20.5837 20.3848 21.9395 21.0472 23.146L11.2302 32.9536C11.0032 33.1806 10.9317 33.5258 11.0716 33.8523C11.0996 33.9207 11.1463 33.9829 11.1991 34.0357L13.3976 36.2342C13.4505 36.2871 13.5126 36.3306 13.5811 36.3617C13.9076 36.5016 14.2527 36.4332 14.4797 36.2031L15.8386 34.8442L17.7945 36.8001C17.8474 36.853 17.9096 36.8965 17.978 36.9276C18.3045 37.0676 18.6497 36.9992 18.8766 36.769L21.044 34.6017C21.0969 34.5488 21.1404 34.4866 21.1715 34.4182C21.3114 34.0917 21.243 33.7465 21.0129 33.5196L19.0881 31.5947L24.2873 26.3924C25.4907 27.0548 26.8496 27.403 28.2334 27.403C29.3404 27.403 30.4132 27.1854 31.4269 26.7593C32.4033 26.3458 33.2802 25.7549 34.0327 25.0024C34.7852 24.2499 35.376 23.373 35.7896 22.3966C36.2188 21.3798 36.4365 20.307 36.4365 19.2ZM31.1098 22.0763C30.3417 22.8444 29.3186 23.2673 28.2334 23.2673C27.1482 23.2673 26.1251 22.8444 25.3571 22.0763C24.589 21.3083 24.163 20.2852 24.163 19.2C24.163 18.1116 24.5859 17.0917 25.3539 16.3236C26.122 15.5555 27.1451 15.1326 28.2303 15.1326C29.3155 15.1326 30.3386 15.5555 31.1067 16.3236C31.8747 17.0917 32.2976 18.1147 32.2976 19.2C32.3038 20.2852 31.8809 21.3083 31.1098 22.0763Z" fill="white"/>
    </svg>
    