<svg width="14" height="20" viewBox="0 0 14 20" fill="none" xmlns="http://www.w3.org/2000/svg">
    <path d="M7.0683 0C8.72589 0 10.3156 0.653209 11.4877 1.81593C12.6598 2.97865 13.3182 4.55563 13.3182 6.19997C13.3139 6.53781 13.2798 6.87463 13.2163 7.20659L13.158 7.49719C13.0836 7.84545 12.9833 8.22582 12.857 8.6383L12.7423 8.99981C12.7222 9.06149 12.7015 9.1237 12.6801 9.18644L12.549 9.57179L12.4025 9.97304L12.2423 10.3899C12.2147 10.4607 12.1866 10.5321 12.158 10.6042L11.9795 11.0452L11.7872 11.5021L11.5833 11.9748L11.3676 12.4635L11.1388 12.9684L10.8965 13.4892L10.5093 14.3006L10.0926 15.1483L9.64777 16.0322L9.33527 16.6417L8.84265 17.5866L8.3215 18.5681L7.77342 19.5827C7.70477 19.7089 7.60298 19.8143 7.47884 19.8877C7.35471 19.9612 7.21285 20 7.0683 20C6.92375 20 6.7819 19.9612 6.65776 19.8877C6.53363 19.8143 6.43184 19.7089 6.36318 19.5827L5.81319 18.5652L5.29204 17.5825L4.79941 16.6378L4.48692 16.0283L4.04237 15.1445L3.76192 14.5753L3.4943 14.0224L3.23789 13.4857L2.99783 12.9665C2.95851 12.8817 2.91973 12.7969 2.88148 12.7122L2.65712 12.2155L2.44687 11.7348C2.4129 11.6559 2.37946 11.5778 2.34655 11.5005L2.15424 11.0439L1.97604 10.6032C1.94741 10.5311 1.91931 10.4597 1.89175 10.3889L1.73149 9.97209L1.58758 9.5702L1.45393 9.18517C1.43256 9.12158 1.41184 9.05937 1.39175 8.99854L1.27701 8.63703C1.16953 8.28411 1.08075 7.9544 1.01067 7.6479L0.946563 7.34935C0.86713 6.97113 0.824201 6.58626 0.818359 6.19997C0.818359 4.55563 1.47683 2.97865 2.64893 1.81593C3.82102 0.653209 5.41071 0 7.0683 0ZM7.0683 0.953841C5.66573 0.953841 4.3206 1.50656 3.32883 2.4904C2.33706 3.47424 1.77989 4.80861 1.77989 6.19997C1.78482 6.5097 1.81829 6.81833 1.87989 7.12201L1.9363 7.39386C1.97796 7.5806 2.02796 7.77836 2.0863 7.98715L2.17989 8.30827C2.19655 8.36317 2.21375 8.41871 2.23149 8.47488L2.34399 8.82049L2.46899 9.18263L2.60648 9.56098C2.63042 9.62457 2.65488 9.68965 2.67988 9.7562L2.83597 10.159L3.00456 10.5781L3.18565 11.0134L3.37795 11.4649L3.58404 11.9322L3.80231 12.4158L4.03307 12.9156L4.40262 13.6952L4.80037 14.5111L5.22601 15.3629L5.52537 15.9508L5.9978 16.8623L6.32825 17.4899L6.84715 18.461L7.0683 18.8695L7.46702 18.1316L7.97663 17.1726L8.45739 16.2506L8.76284 15.6551L9.19777 14.7915L9.47213 14.2358L9.73398 13.6952L9.98334 13.1716C10.0239 13.0857 10.064 13.001 10.1035 12.9172L10.4452 12.1739L10.6574 11.697L10.857 11.2375L11.0442 10.7943L11.2189 10.3651L11.3811 9.95428L11.5308 9.55971L11.6679 9.18136L11.7929 8.81921L11.9054 8.47361C11.9232 8.41744 11.9404 8.3619 11.957 8.307L12.0506 7.98588C12.109 7.7773 12.159 7.57964 12.2006 7.3929L12.2567 7.12106C12.3107 6.85011 12.3436 6.57544 12.3551 6.29948V6.19869C12.3548 4.80783 11.7977 3.47403 10.8063 2.49051C9.8149 1.50699 8.47038 0.954262 7.0683 0.953841ZM7.0683 3.65639C7.57543 3.65639 8.07117 3.80557 8.49283 4.08506C8.91449 4.36455 9.24313 4.7618 9.4372 5.22658C9.63127 5.69136 9.68205 6.20279 9.58311 6.69619C9.48418 7.1896 9.23997 7.64282 8.88138 7.99855C8.52279 8.35427 8.06591 8.59652 7.56853 8.69467C7.07115 8.79281 6.5556 8.74244 6.08707 8.54992C5.61855 8.35741 5.21809 8.03139 4.93635 7.6131C4.6546 7.19481 4.50422 6.70304 4.50422 6.19997C4.50422 5.52537 4.77437 4.8784 5.25523 4.40139C5.73608 3.92437 6.38827 3.65639 7.0683 3.65639ZM7.0683 4.61023C6.75135 4.61023 6.44151 4.70347 6.17797 4.87815C5.91444 5.05283 5.70903 5.30112 5.58774 5.5916C5.46645 5.88209 5.43471 6.20173 5.49655 6.51011C5.55838 6.81849 5.71101 7.10175 5.93513 7.32408C6.15925 7.54641 6.4448 7.69781 6.75566 7.75916C7.06652 7.8205 7.38874 7.78901 7.68157 7.66869C7.9744 7.54837 8.22468 7.34461 8.40077 7.08318C8.57686 6.82175 8.67085 6.51439 8.67085 6.19997C8.67085 5.77834 8.50201 5.37399 8.20148 5.07585C7.90094 4.77772 7.49333 4.61023 7.0683 4.61023Z" fill="#707070" />
</svg>
    