<svg width="48" height="48" viewBox="0 0 48 48" fill="none" xmlns="http://www.w3.org/2000/svg">
    <rect width="48" height="48" rx="9" fill="#982C31"/>
    <path d="M27.5004 16.85C26.7828 16.85 26.2004 16.2676 26.2004 15.55V13.6H21.0004V15.55C21.0004 16.2676 20.418 16.85 19.7004 16.85C18.9828 16.85 18.4004 16.2676 18.4004 15.55V13.6C18.4004 12.1661 19.5665 11 21.0004 11H26.2004C27.6343 11 28.8004 12.1661 28.8004 13.6V15.55C28.8004 16.2676 28.218 16.85 27.5004 16.85Z" fill="white"/>
    <path d="M24.523 28.3939C24.289 28.4849 23.951 28.5499 23.6 28.5499C23.249 28.5499 22.911 28.4849 22.599 28.3679L8 23.5059V33.4249C8 35.4009 9.599 36.9999 11.575 36.9999H35.625C37.601 36.9999 39.2 35.4009 39.2 33.4249V23.5059L24.523 28.3939Z" fill="white"/>
    <path d="M39.2 18.4754V21.4524L23.912 26.5484C23.808 26.5874 23.704 26.6004 23.6 26.6004C23.496 26.6004 23.392 26.5874 23.288 26.5484L8 21.4524V18.4754C8 16.4994 9.599 14.9004 11.575 14.9004H35.625C37.601 14.9004 39.2 16.4994 39.2 18.4754Z" fill="white"/>
    </svg>
    