<svg width="23" height="22" viewBox="0 0 23 22" fill="none" xmlns="http://www.w3.org/2000/svg">
    <path d="M14.8398 21H6.32528C4.82501 20.9983 3.38668 20.4051 2.32582 19.3506C1.26497 18.296 0.668224 16.8663 0.666504 15.375V6.91006C0.668224 5.41873 1.26497 3.98898 2.32582 2.93445C3.38668 1.87993 4.82501 1.28674 6.32528 1.28503H10.1182V1.93115H6.32528C4.99731 1.93256 3.72413 2.45757 2.7851 3.391C1.84608 4.32442 1.31792 5.59 1.3165 6.91006V15.3753C1.31792 16.6954 1.84608 17.961 2.7851 18.8944C3.72413 19.8278 4.99731 20.3528 6.32528 20.3542H14.8406C16.1686 20.3528 17.4418 19.8278 18.3808 18.8944C19.3198 17.961 19.848 16.6954 19.8494 15.3753V11.1425H20.4994V15.3746C20.4976 16.8659 19.9008 18.2956 18.84 19.3501C17.7791 20.4046 16.3408 20.9978 14.8406 20.9996L14.8398 21Z" fill="#B11226" stroke="#707070" />
    <path d="M20.5866 4.13671L10.4363 14.226L7.33317 14.8866L7.99808 11.8016L18.1476 1.71301L20.5862 4.13671H20.5866ZM21.3031 4.13671L18.1476 1L7.53352 11.5511L6.67285 15.5418L10.6875 14.6863L21.3031 4.13671Z" fill="#B11226" stroke="#707070" />
</svg>
    