<svg width="35" height="35" viewBox="0 0 35 35" fill="none" xmlns="http://www.w3.org/2000/svg">
<path d="M29.6953 14.1641H34.3828V15.4297H29.6953V21.1953H34.3828V22.4609H29.6953V35H28.4297L19.7812 22.4609H6.39844V35H5.10938V22.4609H0.421875V21.1953H5.10938V15.4297H0.421875V14.1641H5.10938V0.875H6.39844L15.5625 14.1641H28.4297V0.875H29.6953V14.1641ZM6.39844 21.1953H18.9141L14.9297 15.4297H6.39844V21.1953ZM20.4141 21.1953H28.4297V15.4297H16.4531L20.4141 21.1953ZM6.39844 14.1641H14.0625L6.39844 3.03125V14.1641ZM28.4297 32.7734V22.4609H21.3047L28.4297 32.7734Z" fill="#861F41"/>
</svg>
