<svg width="57" height="27" viewBox="0 0 57 27" fill="none" xmlns="http://www.w3.org/2000/svg">
    <rect x="0.5" y="0.5" width="56" height="26" rx="2.5" stroke="#8E8E8E"/>
    <path d="M21.8159 21H19.7158L14.3286 12.4253V21H12.2285V8.91406H14.3286L19.7324 17.522V8.91406H21.8159V21ZM33.5615 19.4312C33.1243 20.0011 32.5184 20.4328 31.7437 20.7261C30.9689 21.0194 30.089 21.166 29.104 21.166C28.0913 21.166 27.1948 20.9364 26.4146 20.4771C25.6343 20.0177 25.0311 19.362 24.605 18.5098C24.1844 17.652 23.9658 16.6532 23.9492 15.5132V14.5669C23.9492 12.7407 24.3864 11.3158 25.2607 10.292C26.1351 9.2627 27.3553 8.74805 28.9214 8.74805C30.2661 8.74805 31.3341 9.08008 32.1255 9.74414C32.9168 10.4082 33.3927 11.3656 33.5532 12.6162H31.4946C31.2622 11.1608 30.4183 10.4331 28.9629 10.4331C28.0221 10.4331 27.3055 10.7734 26.813 11.4541C26.326 12.1292 26.0742 13.1226 26.0576 14.4341V15.3638C26.0576 16.6698 26.3315 17.6852 26.8794 18.4102C27.4328 19.1296 28.1992 19.4893 29.1787 19.4893C30.2523 19.4893 31.016 19.2458 31.4697 18.7588V16.3931H28.9795V14.7993H33.5615V19.4312ZM45.4565 21H43.3564L37.9692 12.4253V21H35.8691V8.91406H37.9692L43.373 17.522V8.91406H45.4565V21Z" fill="#8E8E8E"/>
    </svg>
    