<svg width="30" height="20" viewBox="0 0 30 20" fill="none" xmlns="http://www.w3.org/2000/svg">
    <path d="M23.717 8.56249H2.8125C2.43125 8.56249 2.06562 8.71395 1.79603 8.98353C1.52645 9.25311 1.375 9.61874 1.375 9.99999C1.375 10.3812 1.52645 10.7469 1.79603 11.0165C2.06562 11.286 2.43125 11.4375 2.8125 11.4375H23.717L18.6703 16.4826L18.6702 16.4827C18.4004 16.7525 18.2488 17.1184 18.2488 17.5C18.2488 17.8816 18.4004 18.2475 18.6702 18.5173C18.94 18.7871 19.3059 18.9387 19.6875 18.9387C20.0691 18.9387 20.435 18.7871 20.7048 18.5173L28.2044 11.0177L23.717 8.56249ZM23.717 8.56249L18.6703 3.51735L18.6702 3.5173C18.4004 3.24749 18.2488 2.88156 18.2488 2.49999C18.2488 2.11843 18.4004 1.7525 18.6702 1.48269C18.94 1.21288 19.3059 1.06131 19.6875 1.06131C20.0691 1.06131 20.435 1.21288 20.7048 1.48269L28.2044 8.98224L23.717 8.56249ZM28.5169 9.44905C28.4445 9.2746 28.3385 9.11613 28.2048 8.98269V11.0173C28.3385 10.8839 28.4445 10.7254 28.5169 10.5509C28.5894 10.3763 28.6267 10.1891 28.6267 9.99999C28.6267 9.81092 28.5894 9.62369 28.5169 9.44905Z" fill="#982C31" stroke="#982C31"/>
    </svg>
    