<svg width="206" height="27" viewBox="0 0 206 27" fill="none" xmlns="http://www.w3.org/2000/svg">
<path fill-rule="evenodd" clip-rule="evenodd" d="M85.9282 0C85.6139 0 85.3591 0.254778 85.3591 0.569062V26.3012C85.3591 26.6155 85.6139 26.8703 85.9282 26.8703C86.2425 26.8703 86.4972 26.6155 86.4972 26.3012V0.569061C86.4972 0.254777 86.2425 0 85.9282 0ZM82.5138 2.85854C82.1995 2.85854 81.9447 3.11331 81.9447 3.4276V23.4427C81.9447 23.7569 82.1995 24.0117 82.5138 24.0117C82.8281 24.0117 83.0829 23.7569 83.0829 23.4427V3.4276C83.0829 3.11332 82.8281 2.85854 82.5138 2.85854ZM58.6133 6.57464C58.299 6.57464 58.0442 6.82941 58.0442 7.1437V19.7266C58.0442 20.0408 58.299 20.2956 58.6133 20.2956C58.9275 20.2956 59.1823 20.0408 59.1823 19.7266V7.1437C59.1823 6.82941 58.9275 6.57464 58.6133 6.57464ZM54.6298 9.14468C54.6298 8.83039 54.8846 8.57561 55.1989 8.57561C55.5132 8.57561 55.768 8.83039 55.768 9.14468V17.7256C55.768 18.0399 55.5132 18.2946 55.1989 18.2946C54.8846 18.2946 54.6298 18.0399 54.6298 17.7256V9.14468ZM0 13.4351C0 13.1208 0.254777 12.8634 0.569061 12.8634C0.883345 12.8634 1.13812 13.1208 1.13812 13.4351C1.13812 13.7494 0.883345 14.0068 0.569061 14.0068C0.254777 14.0068 0 13.7494 0 13.4351ZM109.829 12.2917C109.514 12.2917 109.26 12.5465 109.26 12.8608V14.2953C109.26 14.6096 109.514 14.8644 109.829 14.8644C110.143 14.8644 110.398 14.6096 110.398 14.2953V12.8608C110.398 12.5465 110.143 12.2917 109.829 12.2917ZM3.41436 13.4351C3.41436 13.1208 3.66914 12.8634 3.98343 12.8634C4.29771 12.8634 4.55249 13.1208 4.55249 13.4351C4.55249 13.7494 4.29771 14.0068 3.98343 14.0068C3.66914 14.0068 3.41436 13.7494 3.41436 13.4351ZM112.674 11.4315C112.674 11.1172 112.929 10.8624 113.243 10.8624C113.557 10.8624 113.812 11.1172 113.812 11.4315V15.7246C113.812 16.0389 113.557 16.2937 113.243 16.2937C112.929 16.2937 112.674 16.0389 112.674 15.7246V11.4315ZM7.39779 12.8634C7.08351 12.8634 6.82873 13.1208 6.82873 13.4351C6.82873 13.7494 7.08351 14.0068 7.39779 14.0068C7.71207 14.0068 7.96685 13.7494 7.96685 13.4351C7.96685 13.1208 7.71207 12.8634 7.39779 12.8634ZM61.4586 9.14468C61.4586 8.83039 61.7133 8.57561 62.0276 8.57561C62.3419 8.57561 62.5967 8.83039 62.5967 9.14468V17.7256C62.5967 18.0399 62.3419 18.2946 62.0276 18.2946C61.7133 18.2946 61.4586 18.0399 61.4586 17.7256V9.14468ZM116.657 8.57561C116.343 8.57561 116.088 8.83039 116.088 9.14468V17.7256C116.088 18.0399 116.343 18.2946 116.657 18.2946C116.972 18.2946 117.227 18.0399 117.227 17.7256V9.14468C117.227 8.83039 116.972 8.57561 116.657 8.57561ZM10.2431 13.4351C10.2431 13.1208 10.4979 12.8634 10.8122 12.8634C11.1264 12.8634 11.3812 13.1208 11.3812 13.4351C11.3812 13.7494 11.1264 14.0068 10.8122 14.0068C10.4979 14.0068 10.2431 13.7494 10.2431 13.4351ZM65.442 12.2917C65.1277 12.2917 64.8729 12.5465 64.8729 12.8608V14.2953C64.8729 14.6096 65.1277 14.8644 65.442 14.8644C65.7563 14.8644 66.011 14.6096 66.011 14.2953V12.8608C66.011 12.5465 65.7563 12.2917 65.442 12.2917ZM119.503 11.4315C119.503 11.1172 119.758 10.8624 120.072 10.8624C120.386 10.8624 120.641 11.1172 120.641 11.4315V15.7246C120.641 16.0389 120.386 16.2937 120.072 16.2937C119.758 16.2937 119.503 16.0389 119.503 15.7246V11.4315ZM14.2265 12.8634C13.9122 12.8634 13.6575 13.1208 13.6575 13.4351C13.6575 13.7494 13.9122 14.0068 14.2265 14.0068C14.5408 14.0068 14.7956 13.7494 14.7956 13.4351C14.7956 13.1208 14.5408 12.8634 14.2265 12.8634ZM68.2873 11.1457C68.2873 10.8314 68.5421 10.5766 68.8564 10.5766C69.1706 10.5766 69.4254 10.8314 69.4254 11.1457V15.7246C69.4254 16.0389 69.1706 16.2937 68.8564 16.2937C68.5421 16.2937 68.2873 16.0389 68.2873 15.7246V11.1457ZM123.486 8.57561C123.172 8.57561 122.917 8.83039 122.917 9.14468V17.7256C122.917 18.0399 123.172 18.2946 123.486 18.2946C123.8 18.2946 124.055 18.0399 124.055 17.7256V9.14468C124.055 8.83039 123.8 8.57561 123.486 8.57561ZM17.0718 12.8608C17.0718 12.5465 17.3266 12.2917 17.6409 12.2917C17.9552 12.2917 18.2099 12.5465 18.2099 12.8608V14.2953C18.2099 14.6096 17.9552 14.8644 17.6409 14.8644C17.3266 14.8644 17.0718 14.6096 17.0718 14.2953V12.8608ZM72.2707 8.57561C71.9564 8.57561 71.7017 8.83039 71.7017 9.14468V17.7256C71.7017 18.0399 71.9564 18.2946 72.2707 18.2946C72.585 18.2946 72.8398 18.0399 72.8398 17.7256V9.14468C72.8398 8.83039 72.585 8.57561 72.2707 8.57561ZM126.331 7.1437C126.331 6.82941 126.586 6.57464 126.901 6.57464C127.215 6.57464 127.47 6.82941 127.47 7.1437V19.7266C127.47 20.0408 127.215 20.2956 126.901 20.2956C126.586 20.2956 126.331 20.0408 126.331 19.7266V7.1437ZM21.0552 10.8624C20.741 10.8624 20.4862 11.1172 20.4862 11.4315V15.7246C20.4862 16.0389 20.741 16.2937 21.0552 16.2937C21.3695 16.2937 21.6243 16.0389 21.6243 15.7246V11.4315C21.6243 11.1172 21.3695 10.8624 21.0552 10.8624ZM75.116 9.14468C75.116 8.83039 75.3708 8.57561 75.6851 8.57561C75.9994 8.57561 76.2541 8.83039 76.2541 9.14468V17.7256C76.2541 18.0399 75.9994 18.2946 75.6851 18.2946C75.3708 18.2946 75.116 18.0399 75.116 17.7256V9.14468ZM130.315 8.57561C130.001 8.57561 129.746 8.83039 129.746 9.14468V17.7256C129.746 18.0399 130.001 18.2946 130.315 18.2946C130.629 18.2946 130.884 18.0399 130.884 17.7256V9.14468C130.884 8.83039 130.629 8.57561 130.315 8.57561ZM23.9006 12.8608C23.9006 12.5465 24.1553 12.2917 24.4696 12.2917C24.7839 12.2917 25.0387 12.5465 25.0387 12.8608V14.2953C25.0387 14.6096 24.7839 14.8644 24.4696 14.8644C24.1553 14.8644 23.9006 14.6096 23.9006 14.2953V12.8608ZM79.0994 8.57561C78.7852 8.57561 78.5304 8.83039 78.5304 9.14468V17.7256C78.5304 18.0399 78.7852 18.2946 79.0994 18.2946C79.4137 18.2946 79.6685 18.0399 79.6685 17.7256V9.14468C79.6685 8.83039 79.4137 8.57561 79.0994 8.57561ZM133.16 11.1457C133.16 10.8314 133.415 10.5766 133.729 10.5766C134.044 10.5766 134.298 10.8314 134.298 11.1457V15.7246C134.298 16.0389 134.044 16.2937 133.729 16.2937C133.415 16.2937 133.16 16.0389 133.16 15.7246V11.1457ZM164.459 6.57464C164.144 6.57464 163.889 6.82941 163.889 7.1437V19.7266C163.889 20.0408 164.144 20.2956 164.459 20.2956C164.773 20.2956 165.028 20.0408 165.028 19.7266V7.1437C165.028 6.82941 164.773 6.57464 164.459 6.57464ZM27.3149 12.8608C27.3149 12.5465 27.5697 12.2917 27.884 12.2917C28.1983 12.2917 28.453 12.5465 28.453 12.8608V14.2953C28.453 14.6096 28.1983 14.8644 27.884 14.8644C27.5697 14.8644 27.3149 14.6096 27.3149 14.2953V12.8608ZM136.575 11.4315C136.575 11.1172 136.829 10.8624 137.144 10.8624C137.458 10.8624 137.713 11.1172 137.713 11.4315V15.7246C137.713 16.0389 137.458 16.2937 137.144 16.2937C136.829 16.2937 136.575 16.0389 136.575 15.7246V11.4315ZM167.873 8.57561C167.559 8.57561 167.304 8.83039 167.304 9.14468V17.7256C167.304 18.0399 167.559 18.2946 167.873 18.2946C168.187 18.2946 168.442 18.0399 168.442 17.7256V9.14468C168.442 8.83039 168.187 8.57561 167.873 8.57561ZM30.7293 11.4315C30.7293 11.1172 30.9841 10.8624 31.2983 10.8624C31.6126 10.8624 31.8674 11.1172 31.8674 11.4315V15.7246C31.8674 16.0389 31.6126 16.2937 31.2983 16.2937C30.9841 16.2937 30.7293 16.0389 30.7293 15.7246V11.4315ZM139.989 9.14468C139.989 8.83039 140.244 8.57561 140.558 8.57561C140.872 8.57561 141.127 8.83039 141.127 9.14468V17.7256C141.127 18.0399 140.872 18.2946 140.558 18.2946C140.244 18.2946 139.989 18.0399 139.989 17.7256V9.14468ZM171.287 8.57561C170.973 8.57561 170.718 8.83039 170.718 9.14468V17.7256C170.718 18.0399 170.973 18.2946 171.287 18.2946C171.602 18.2946 171.856 18.0399 171.856 17.7256V9.14468C171.856 8.83039 171.602 8.57561 171.287 8.57561ZM34.1436 9.14468C34.1436 8.83039 34.3984 8.57561 34.7127 8.57561C35.027 8.57561 35.2818 8.83039 35.2818 9.14468V17.7256C35.2818 18.0399 35.027 18.2946 34.7127 18.2946C34.3984 18.2946 34.1436 18.0399 34.1436 17.7256V9.14468ZM89.3425 8.57561C89.0283 8.57561 88.7735 8.83039 88.7735 9.14468V17.7256C88.7735 18.0399 89.0283 18.2946 89.3425 18.2946C89.6568 18.2946 89.9116 18.0399 89.9116 17.7256V9.14468C89.9116 8.83039 89.6568 8.57561 89.3425 8.57561ZM143.403 9.14468C143.403 8.83039 143.658 8.57561 143.972 8.57561C144.287 8.57561 144.541 8.83039 144.541 9.14468V17.7256C144.541 18.0399 144.287 18.2946 143.972 18.2946C143.658 18.2946 143.403 18.0399 143.403 17.7256V9.14468ZM174.702 8.57561C174.387 8.57561 174.133 8.83039 174.133 9.14468V17.7256C174.133 18.0399 174.387 18.2946 174.702 18.2946C175.016 18.2946 175.271 18.0399 175.271 17.7256V9.14468C175.271 8.83039 175.016 8.57561 174.702 8.57561ZM37.558 9.14468C37.558 8.83039 37.8128 8.57561 38.1271 8.57561C38.4414 8.57561 38.6961 8.83039 38.6961 9.14468V17.7256C38.6961 18.0399 38.4414 18.2946 38.1271 18.2946C37.8128 18.2946 37.558 18.0399 37.558 17.7256V9.14468ZM92.7569 4.28781C92.4426 4.28781 92.1878 4.54258 92.1878 4.85687V22.0134C92.1878 22.3277 92.4426 22.5825 92.7569 22.5825C93.0712 22.5825 93.326 22.3277 93.326 22.0134V4.85687C93.326 4.54258 93.0712 4.28781 92.7569 4.28781ZM146.818 7.1437C146.818 6.82941 147.072 6.57464 147.387 6.57464C147.701 6.57464 147.956 6.82941 147.956 7.1437V19.7266C147.956 20.0408 147.701 20.2956 147.387 20.2956C147.072 20.2956 146.818 20.0408 146.818 19.7266V7.1437ZM178.116 10.5766C177.802 10.5766 177.547 10.8314 177.547 11.1457V15.7246C177.547 16.0389 177.802 16.2937 178.116 16.2937C178.43 16.2937 178.685 16.0389 178.685 15.7246V11.1457C178.685 10.8314 178.43 10.5766 178.116 10.5766ZM40.9724 9.14468C40.9724 8.83039 41.2271 8.57561 41.5414 8.57561C41.8557 8.57561 42.1105 8.83039 42.1105 9.14468V17.7256C42.1105 18.0399 41.8557 18.2946 41.5414 18.2946C41.2271 18.2946 40.9724 18.0399 40.9724 17.7256V9.14468ZM96.1713 8.57561C95.857 8.57561 95.6022 8.83039 95.6022 9.14468V17.7256C95.6022 18.0399 95.857 18.2946 96.1713 18.2946C96.4856 18.2946 96.7403 18.0399 96.7403 17.7256V9.14468C96.7403 8.83039 96.4856 8.57561 96.1713 8.57561ZM150.232 11.4315C150.232 11.1172 150.487 10.8624 150.801 10.8624C151.115 10.8624 151.37 11.1172 151.37 11.4315V15.7246C151.37 16.0389 151.115 16.2937 150.801 16.2937C150.487 16.2937 150.232 16.0389 150.232 15.7246V11.4315ZM181.53 10.5766C181.216 10.5766 180.961 10.8314 180.961 11.1457V15.7246C180.961 16.0389 181.216 16.2937 181.53 16.2937C181.845 16.2937 182.099 16.0389 182.099 15.7246V11.1457C182.099 10.8314 181.845 10.5766 181.53 10.5766ZM194.619 13.4351C194.619 13.1208 194.874 12.8634 195.188 12.8634C195.502 12.8634 195.757 13.1208 195.757 13.4351C195.757 13.7494 195.502 14.0068 195.188 14.0068C194.874 14.0068 194.619 13.7494 194.619 13.4351ZM44.9558 8.57561C44.6415 8.57561 44.3867 8.83039 44.3867 9.14468V17.7256C44.3867 18.0399 44.6415 18.2946 44.9558 18.2946C45.2701 18.2946 45.5249 18.0399 45.5249 17.7256V9.14468C45.5249 8.83039 45.2701 8.57561 44.9558 8.57561ZM99.0166 9.14468C99.0166 8.83039 99.2713 8.57561 99.5856 8.57561C99.8999 8.57561 100.155 8.83039 100.155 9.14468V17.7256C100.155 18.0399 99.8999 18.2946 99.5856 18.2946C99.2713 18.2946 99.0166 18.0399 99.0166 17.7256V9.14468ZM154.215 8.57561C153.901 8.57561 153.646 8.83039 153.646 9.14468V17.7256C153.646 18.0399 153.901 18.2946 154.215 18.2946C154.53 18.2946 154.785 18.0399 154.785 17.7256V9.14468C154.785 8.83039 154.53 8.57561 154.215 8.57561ZM184.376 11.1457C184.376 10.8314 184.63 10.5766 184.945 10.5766C185.259 10.5766 185.514 10.8314 185.514 11.1457V15.7246C185.514 16.0389 185.259 16.2937 184.945 16.2937C184.63 16.2937 184.376 16.0389 184.376 15.7246V11.1457ZM198.602 12.8634C198.288 12.8634 198.033 13.1208 198.033 13.4351C198.033 13.7494 198.288 14.0068 198.602 14.0068C198.916 14.0068 199.171 13.7494 199.171 13.4351C199.171 13.1208 198.916 12.8634 198.602 12.8634ZM47.8011 12.8608C47.8011 12.5465 48.0559 12.2917 48.3702 12.2917C48.6844 12.2917 48.9392 12.5465 48.9392 12.8608V14.2953C48.9392 14.6096 48.6844 14.8644 48.3702 14.8644C48.0559 14.8644 47.8011 14.6096 47.8011 14.2953V12.8608ZM103 2.85854C102.686 2.85854 102.431 3.11331 102.431 3.4276V23.4427C102.431 23.7569 102.686 24.0117 103 24.0117C103.314 24.0117 103.569 23.7569 103.569 23.4427V3.4276C103.569 3.11332 103.314 2.85854 103 2.85854ZM157.061 11.1457C157.061 10.8314 157.316 10.5766 157.63 10.5766C157.944 10.5766 158.199 10.8314 158.199 11.1457V15.7246C158.199 16.0389 157.944 16.2937 157.63 16.2937C157.316 16.2937 157.061 16.0389 157.061 15.7246V11.1457ZM188.359 12.8634C188.045 12.8634 187.79 13.1208 187.79 13.4351C187.79 13.7494 188.045 14.0068 188.359 14.0068C188.673 14.0068 188.928 13.7494 188.928 13.4351C188.928 13.1208 188.673 12.8634 188.359 12.8634ZM201.448 13.4351C201.448 13.1208 201.702 12.8634 202.017 12.8634C202.331 12.8634 202.586 13.1208 202.586 13.4351C202.586 13.7494 202.331 14.0068 202.017 14.0068C201.702 14.0068 201.448 13.7494 201.448 13.4351ZM51.7845 12.2917C51.4702 12.2917 51.2155 12.5465 51.2155 12.8608V14.2953C51.2155 14.6096 51.4702 14.8644 51.7845 14.8644C52.0988 14.8644 52.3536 14.6096 52.3536 14.2953V12.8608C52.3536 12.5465 52.0988 12.2917 51.7845 12.2917ZM105.845 11.4315C105.845 11.1172 106.1 10.8624 106.414 10.8624C106.729 10.8624 106.983 11.1172 106.983 11.4315V15.7246C106.983 16.0389 106.729 16.2937 106.414 16.2937C106.1 16.2937 105.845 16.0389 105.845 15.7246V11.4315ZM161.044 8.57561C160.73 8.57561 160.475 8.83039 160.475 9.14468V17.7256C160.475 18.0399 160.73 18.2946 161.044 18.2946C161.358 18.2946 161.613 18.0399 161.613 17.7256V9.14468C161.613 8.83039 161.358 8.57561 161.044 8.57561ZM191.204 13.4351C191.204 13.1208 191.459 12.8634 191.773 12.8634C192.088 12.8634 192.343 13.1208 192.343 13.4351C192.343 13.7494 192.088 14.0068 191.773 14.0068C191.459 14.0068 191.204 13.7494 191.204 13.4351ZM205.431 12.8634C205.117 12.8634 204.862 13.1208 204.862 13.4351C204.862 13.7494 205.117 14.0068 205.431 14.0068C205.745 14.0068 206 13.7494 206 13.4351C206 13.1208 205.745 12.8634 205.431 12.8634Z" fill="white"/>
</svg>
