<svg width="19" height="20" viewBox="0 0 19 20" fill="none" xmlns="http://www.w3.org/2000/svg">
<mask id="path-1-inside-1_0_214" fill="white">
<path d="M3.125 1.75V18.25H16.875V1.75H3.125ZM2.4375 0.375H17.5625C17.7633 0.375 17.928 0.439396 18.0568 0.568187C18.1856 0.696979 18.25 0.86175 18.25 1.0625V18.9375C18.25 19.1383 18.1856 19.303 18.0568 19.4318C17.928 19.5606 17.7633 19.625 17.5625 19.625H2.4375C2.23675 19.625 2.07198 19.5606 1.94319 19.4318C1.8144 19.303 1.75 19.1383 1.75 18.9375V1.0625C1.75 0.86175 1.8144 0.696979 1.94319 0.568187C2.07198 0.439396 2.23675 0.375 2.4375 0.375ZM13.4375 1.75H14.8125V18.25H13.4375V1.75ZM1.0625 3.125H3.8125C4.27083 3.125 4.5 3.35417 4.5 3.8125C4.5 4.27083 4.27083 4.5 3.8125 4.5H1.0625C0.604167 4.5 0.375 4.27083 0.375 3.8125C0.375 3.35417 0.604167 3.125 1.0625 3.125ZM1.0625 7.25H3.8125C4.27083 7.25 4.5 7.47917 4.5 7.9375C4.5 8.39583 4.27083 8.625 3.8125 8.625H1.0625C0.604167 8.625 0.375 8.39583 0.375 7.9375C0.375 7.47917 0.604167 7.25 1.0625 7.25ZM1.0625 11.375H3.8125C4.27083 11.375 4.5 11.6042 4.5 12.0625C4.5 12.5208 4.27083 12.75 3.8125 12.75H1.0625C0.604167 12.75 0.375 12.5208 0.375 12.0625C0.375 11.6042 0.604167 11.375 1.0625 11.375ZM1.0625 15.5H3.8125C4.27083 15.5 4.5 15.7292 4.5 16.1875C4.5 16.6458 4.27083 16.875 3.8125 16.875H1.0625C0.604167 16.875 0.375 16.6458 0.375 16.1875C0.375 15.7292 0.604167 15.5 1.0625 15.5Z"/>
</mask>
<path d="M3.125 1.75V18.25H16.875V1.75H3.125ZM2.4375 0.375H17.5625C17.7633 0.375 17.928 0.439396 18.0568 0.568187C18.1856 0.696979 18.25 0.86175 18.25 1.0625V18.9375C18.25 19.1383 18.1856 19.303 18.0568 19.4318C17.928 19.5606 17.7633 19.625 17.5625 19.625H2.4375C2.23675 19.625 2.07198 19.5606 1.94319 19.4318C1.8144 19.303 1.75 19.1383 1.75 18.9375V1.0625C1.75 0.86175 1.8144 0.696979 1.94319 0.568187C2.07198 0.439396 2.23675 0.375 2.4375 0.375ZM13.4375 1.75H14.8125V18.25H13.4375V1.75ZM1.0625 3.125H3.8125C4.27083 3.125 4.5 3.35417 4.5 3.8125C4.5 4.27083 4.27083 4.5 3.8125 4.5H1.0625C0.604167 4.5 0.375 4.27083 0.375 3.8125C0.375 3.35417 0.604167 3.125 1.0625 3.125ZM1.0625 7.25H3.8125C4.27083 7.25 4.5 7.47917 4.5 7.9375C4.5 8.39583 4.27083 8.625 3.8125 8.625H1.0625C0.604167 8.625 0.375 8.39583 0.375 7.9375C0.375 7.47917 0.604167 7.25 1.0625 7.25ZM1.0625 11.375H3.8125C4.27083 11.375 4.5 11.6042 4.5 12.0625C4.5 12.5208 4.27083 12.75 3.8125 12.75H1.0625C0.604167 12.75 0.375 12.5208 0.375 12.0625C0.375 11.6042 0.604167 11.375 1.0625 11.375ZM1.0625 15.5H3.8125C4.27083 15.5 4.5 15.7292 4.5 16.1875C4.5 16.6458 4.27083 16.875 3.8125 16.875H1.0625C0.604167 16.875 0.375 16.6458 0.375 16.1875C0.375 15.7292 0.604167 15.5 1.0625 15.5Z" fill="#08080A" fill-opacity="0.96"/>
<path d="M3.125 1.75V-39.25H-37.875V1.75H3.125ZM3.125 18.25H-37.875V59.25H3.125V18.25ZM16.875 18.25V59.25H57.875V18.25H16.875ZM16.875 1.75H57.875V-39.25H16.875V1.75ZM2.4375 0.375V-40.625V0.375ZM18.25 1.0625H-22.75H18.25ZM17.5625 19.625V-21.375V19.625ZM1.75 18.9375H42.75H1.75ZM13.4375 1.75V-39.25H-27.5625V1.75H13.4375ZM14.8125 1.75H55.8125V-39.25H14.8125V1.75ZM14.8125 18.25V59.25H55.8125V18.25H14.8125ZM13.4375 18.25H-27.5625V59.25H13.4375V18.25ZM-37.875 1.75V18.25H44.125V1.75H-37.875ZM3.125 59.25H16.875V-22.75H3.125V59.25ZM57.875 18.25V1.75H-24.125V18.25H57.875ZM16.875 -39.25H3.125V42.75H16.875V-39.25ZM2.4375 41.375H17.5625V-40.625H2.4375V41.375ZM17.5625 41.375C8.10941 41.375 -2.55261 37.9415 -10.9346 29.5596L47.0482 -28.4232C38.4086 -37.0627 27.4171 -40.625 17.5625 -40.625V41.375ZM-10.9346 29.5596C-19.3165 21.1776 -22.75 10.5156 -22.75 1.0625H59.25C59.25 -8.79211 55.6877 -19.7837 47.0482 -28.4232L-10.9346 29.5596ZM-22.75 1.0625V18.9375H59.25V1.0625H-22.75ZM-22.75 18.9375C-22.75 9.48438 -19.3165 -1.17762 -10.9346 -9.55957L47.0482 48.4232C55.6877 39.7837 59.25 28.7921 59.25 18.9375H-22.75ZM-10.9346 -9.55957C-2.55262 -17.9415 8.10938 -21.375 17.5625 -21.375V60.625C27.4171 60.625 38.4087 57.0627 47.0482 48.4232L-10.9346 -9.55957ZM17.5625 -21.375H2.4375V60.625H17.5625V-21.375ZM2.4375 -21.375C11.8906 -21.375 22.5526 -17.9415 30.9346 -9.55957L-27.0482 48.4232C-18.4087 57.0627 -7.41712 60.625 2.4375 60.625V-21.375ZM30.9346 -9.55957C39.3165 -1.17762 42.75 9.48438 42.75 18.9375H-39.25C-39.25 28.7921 -35.6877 39.7837 -27.0482 48.4232L30.9346 -9.55957ZM42.75 18.9375V1.0625H-39.25V18.9375H42.75ZM42.75 1.0625C42.75 10.5156 39.3165 21.1776 30.9346 29.5596L-27.0482 -28.4232C-35.6877 -19.7837 -39.25 -8.79211 -39.25 1.0625H42.75ZM30.9346 29.5596C22.5526 37.9415 11.8906 41.375 2.4375 41.375V-40.625C-7.41709 -40.625 -18.4086 -37.0627 -27.0482 -28.4232L30.9346 29.5596ZM13.4375 42.75H14.8125V-39.25H13.4375V42.75ZM-26.1875 1.75V18.25H55.8125V1.75H-26.1875ZM14.8125 -22.75H13.4375V59.25H14.8125V-22.75ZM54.4375 18.25V1.75H-27.5625V18.25H54.4375ZM1.0625 44.125H3.8125V-37.875H1.0625V44.125ZM3.8125 44.125C-2.27827 44.125 -14.377 42.5745 -24.6633 32.2883C-34.9495 22.002 -36.5 9.90327 -36.5 3.8125H45.5C45.5 -2.7366 43.835 -15.179 33.3195 -25.6945C22.804 -36.21 10.3616 -37.875 3.8125 -37.875V44.125ZM-36.5 3.8125C-36.5 -2.27827 -34.9495 -14.377 -24.6633 -24.6633C-14.377 -34.9495 -2.27827 -36.5 3.8125 -36.5V45.5C10.3616 45.5 22.804 43.835 33.3195 33.3195C43.835 22.804 45.5 10.3616 45.5 3.8125H-36.5ZM3.8125 -36.5H1.0625V45.5H3.8125V-36.5ZM1.0625 -36.5C7.15327 -36.5 19.252 -34.9495 29.5383 -24.6633C39.8245 -14.377 41.375 -2.27827 41.375 3.8125H-40.625C-40.625 10.3616 -38.96 22.804 -28.4445 33.3195C-17.929 43.835 -5.4866 45.5 1.0625 45.5V-36.5ZM41.375 3.8125C41.375 9.90327 39.8245 22.002 29.5383 32.2883C19.252 42.5745 7.15327 44.125 1.0625 44.125V-37.875C-5.4866 -37.875 -17.929 -36.21 -28.4445 -25.6945C-38.96 -15.179 -40.625 -2.7366 -40.625 3.8125H41.375ZM1.0625 48.25H3.8125V-33.75H1.0625V48.25ZM3.8125 48.25C-2.27827 48.25 -14.377 46.6995 -24.6633 36.4133C-34.9495 26.127 -36.5 14.0283 -36.5 7.9375H45.5C45.5 1.3884 43.835 -11.054 33.3195 -21.5695C22.804 -32.085 10.3616 -33.75 3.8125 -33.75V48.25ZM-36.5 7.9375C-36.5 1.84673 -34.9495 -10.252 -24.6633 -20.5383C-14.377 -30.8245 -2.27827 -32.375 3.8125 -32.375V49.625C10.3616 49.625 22.804 47.96 33.3195 37.4445C43.835 26.929 45.5 14.4866 45.5 7.9375H-36.5ZM3.8125 -32.375H1.0625V49.625H3.8125V-32.375ZM1.0625 -32.375C7.15327 -32.375 19.252 -30.8245 29.5383 -20.5383C39.8245 -10.252 41.375 1.84673 41.375 7.9375H-40.625C-40.625 14.4866 -38.96 26.929 -28.4445 37.4445C-17.929 47.96 -5.4866 49.625 1.0625 49.625V-32.375ZM41.375 7.9375C41.375 14.0283 39.8245 26.127 29.5383 36.4133C19.252 46.6995 7.15327 48.25 1.0625 48.25V-33.75C-5.4866 -33.75 -17.929 -32.085 -28.4445 -21.5695C-38.96 -11.054 -40.625 1.3884 -40.625 7.9375H41.375ZM1.0625 52.375H3.8125V-29.625H1.0625V52.375ZM3.8125 52.375C-2.27827 52.375 -14.377 50.8245 -24.6633 40.5383C-34.9495 30.252 -36.5 18.1533 -36.5 12.0625H45.5C45.5 5.5134 43.835 -6.92905 33.3195 -17.4445C22.804 -27.96 10.3616 -29.625 3.8125 -29.625V52.375ZM-36.5 12.0625C-36.5 5.97173 -34.9495 -6.12697 -24.6633 -16.4133C-14.377 -26.6995 -2.27827 -28.25 3.8125 -28.25V53.75C10.3616 53.75 22.804 52.085 33.3195 41.5695C43.835 31.054 45.5 18.6116 45.5 12.0625H-36.5ZM3.8125 -28.25H1.0625V53.75H3.8125V-28.25ZM1.0625 -28.25C7.15327 -28.25 19.252 -26.6995 29.5383 -16.4133C39.8245 -6.12697 41.375 5.97173 41.375 12.0625H-40.625C-40.625 18.6116 -38.96 31.054 -28.4445 41.5695C-17.929 52.085 -5.4866 53.75 1.0625 53.75V-28.25ZM41.375 12.0625C41.375 18.1533 39.8245 30.252 29.5383 40.5383C19.252 50.8245 7.15327 52.375 1.0625 52.375V-29.625C-5.4866 -29.625 -17.929 -27.96 -28.4445 -17.4445C-38.96 -6.92905 -40.625 5.5134 -40.625 12.0625H41.375ZM1.0625 56.5H3.8125V-25.5H1.0625V56.5ZM3.8125 56.5C-2.27827 56.5 -14.377 54.9495 -24.6633 44.6633C-34.9495 34.377 -36.5 22.2783 -36.5 16.1875H45.5C45.5 9.6384 43.835 -2.80405 33.3195 -13.3195C22.804 -23.835 10.3616 -25.5 3.8125 -25.5V56.5ZM-36.5 16.1875C-36.5 10.0967 -34.9495 -2.00197 -24.6633 -12.2883C-14.377 -22.5745 -2.27827 -24.125 3.8125 -24.125V57.875C10.3616 57.875 22.804 56.21 33.3195 45.6945C43.835 35.1791 45.5 22.7366 45.5 16.1875H-36.5ZM3.8125 -24.125H1.0625V57.875H3.8125V-24.125ZM1.0625 -24.125C7.15327 -24.125 19.252 -22.5745 29.5383 -12.2883C39.8245 -2.00197 41.375 10.0967 41.375 16.1875H-40.625C-40.625 22.7366 -38.96 35.1791 -28.4445 45.6945C-17.929 56.21 -5.4866 57.875 1.0625 57.875V-24.125ZM41.375 16.1875C41.375 22.2783 39.8245 34.377 29.5383 44.6633C19.252 54.9495 7.15327 56.5 1.0625 56.5V-25.5C-5.4866 -25.5 -17.929 -23.835 -28.4445 -13.3195C-38.96 -2.80405 -40.625 9.6384 -40.625 16.1875H41.375Z" fill="black" mask="url(#path-1-inside-1_0_214)"/>
</svg>
