<svg width="22" height="27" viewBox="0 0 22 27" fill="none" xmlns="http://www.w3.org/2000/svg">
    <path d="M20.625 20.8337L21.125 21.5C21.1946 21.5929 21.2371 21.7033 21.2475 21.8189C21.2579 21.9345 21.2359 22.0507 21.184 22.1545C21.1321 22.2583 21.0523 22.3456 20.9536 22.4067C20.8548 22.4677 20.7411 22.5 20.625 22.5H0.625C0.50893 22.5 0.395153 22.4677 0.296418 22.4067C0.197683 22.3456 0.117891 22.2583 0.0659832 22.1545C0.0140752 22.0507 -0.007898 21.9345 0.00252573 21.8189C0.0129495 21.7033 0.0553582 21.5929 0.125 21.5L0.625 20.8337V10C0.625 7.34784 1.67857 4.8043 3.55393 2.92893C5.4293 1.05357 7.97284 0 10.625 0C13.2772 0 15.8207 1.05357 17.6961 2.92893C19.5714 4.8043 20.625 7.34784 20.625 10V20.8337ZM7.5 23.75H13.75C13.75 24.5788 13.4208 25.3737 12.8347 25.9597C12.2487 26.5458 11.4538 26.875 10.625 26.875C9.7962 26.875 9.00134 26.5458 8.41529 25.9597C7.82924 25.3737 7.5 24.5788 7.5 23.75Z" fill="#982C31"/>
    </svg>
    