<svg width="22" height="24" viewBox="0 0 22 24" fill="none" xmlns="http://www.w3.org/2000/svg">
<path d="M7.79202 20.458V19.875H3.41702C2.72115 19.8739 2.05409 19.597 1.56203 19.105C1.06998 18.6129 0.793076 17.9459 0.792018 17.25V16.804C0.789692 16.2489 0.943192 15.7043 1.23506 15.2321C1.52693 14.7599 1.94545 14.3791 2.44302 14.133C2.66572 14.0219 2.85621 13.8556 2.99627 13.6498C3.13634 13.4441 3.22129 13.2059 3.24302 12.958L3.76302 7.22999C3.8614 6.14925 4.20064 5.10427 4.75584 4.17183C5.31103 3.2394 6.06806 2.44318 6.97132 1.84168C7.87458 1.24018 8.90112 0.848671 9.97552 0.695923C11.0499 0.543175 12.1449 0.633065 13.18 0.958988C12.8603 1.45552 12.6109 1.99398 12.439 2.55899C11.9698 2.43452 11.4864 2.37166 11.001 2.37199C9.6224 2.36531 8.29187 2.87821 7.27445 3.80852C6.25704 4.73884 5.62742 6.01828 5.51102 7.39199L4.99202 13.118C4.94336 13.663 4.75574 14.1865 4.44708 14.6384C4.13843 15.0903 3.71905 15.4554 3.22902 15.699C3.02257 15.8007 2.84876 15.9582 2.72733 16.1537C2.6059 16.3492 2.5417 16.5748 2.54202 16.805V17.251C2.54255 17.4828 2.63494 17.7049 2.79894 17.8688C2.96295 18.0326 3.18521 18.1247 3.41702 18.125H18.584C18.816 18.1247 19.0384 18.0325 19.2024 17.8684C19.3665 17.7044 19.4588 17.482 19.459 17.25V16.804C19.46 16.5741 19.3964 16.3485 19.2754 16.153C19.1545 15.9575 18.9811 15.7998 18.775 15.698C18.2844 15.4548 17.8644 15.0898 17.5552 14.6379C17.246 14.186 17.058 13.6623 17.009 13.117L16.776 10.574C17.3542 10.7435 17.9535 10.8304 18.556 10.832L18.75 12.958C18.7736 13.205 18.8594 13.442 18.9992 13.6469C19.1391 13.8518 19.3286 14.018 19.55 14.13C20.0479 14.3762 20.4668 14.7571 20.7592 15.2294C21.0516 15.7017 21.2057 16.2465 21.204 16.802V17.248C21.2035 17.944 20.9268 18.6114 20.4346 19.1036C19.9424 19.5957 19.2751 19.8725 18.579 19.873H14.209V20.459C14.209 21.3099 13.871 22.126 13.2693 22.7277C12.6676 23.3295 11.8515 23.6675 11.0005 23.6675C10.1496 23.6675 9.33348 23.3295 8.73177 22.7277C8.13006 22.126 7.79202 21.3099 7.79202 20.459V20.458ZM9.54202 20.458C9.54202 20.8448 9.69568 21.2158 9.9692 21.4893C10.2427 21.7628 10.6137 21.9165 11.0005 21.9165C11.3873 21.9165 11.7583 21.7628 12.0318 21.4893C12.3054 21.2158 12.459 20.8448 12.459 20.458V19.875H9.54202V20.458ZM18.342 8.49299C17.708 8.45567 17.0915 8.27039 16.542 7.95199L16.491 7.39199C16.3664 5.94783 15.675 4.61177 14.568 3.67599C14.6797 3.07959 14.923 2.51558 15.28 2.02499C16.1145 2.63301 16.8097 3.41209 17.3191 4.31019C17.8285 5.20828 18.1404 6.20473 18.234 7.23299L18.351 8.49399L18.342 8.49299Z" fill="white"/>
</svg>
