<svg width="23" height="19" viewBox="0 0 23 19" fill="none" xmlns="http://www.w3.org/2000/svg">
<path d="M7.83457 14.6154H3.06667C2.8428 14.6154 2.65906 14.5469 2.51543 14.41C2.37181 14.2731 2.3 14.098 2.3 13.8846V1.46154H0.766667C0.5428 1.46154 0.359056 1.39309 0.215433 1.25619C0.0718111 1.11929 0 0.944154 0 0.730769C0 0.517385 0.0718111 0.342244 0.215433 0.205346C0.359056 0.0684488 0.5428 0 0.766667 0H22.2333C22.4572 0 22.6409 0.0684488 22.7846 0.205346C22.9282 0.342244 23 0.517385 23 0.730769C23 0.944154 22.9282 1.11929 22.7846 1.25619C22.6409 1.39309 22.4572 1.46154 22.2333 1.46154H20.7V13.8846C20.7 14.098 20.6282 14.2731 20.4846 14.41C20.3409 14.5469 20.1572 14.6154 19.9333 14.6154H15.1654L17.825 19H16.0517L13.3921 14.6154H9.60633L6.94677 19H5.17347L7.83457 14.6154ZM19.1667 1.46154H3.83333V13.1538H19.1667V1.46154ZM7.45123 9.29465C7.29126 9.43155 7.10751 9.5 6.9 9.5C6.69249 9.5 6.51283 9.42765 6.36103 9.28296C6.20923 9.13827 6.13333 8.96703 6.13333 8.76923C6.13333 8.57144 6.20514 8.39629 6.34877 8.24381L9.8946 4.88665L12.8892 7.03365L15.5005 3.92788C15.6921 3.6994 15.9357 3.60415 16.2311 3.64215C16.5265 3.68015 16.7261 3.8324 16.8299 4.09888C16.9336 4.36537 16.8897 4.61286 16.698 4.84135L13.1759 9.04327L10.0372 6.80492L7.45123 9.29465Z" fill="#BC0018"/>
</svg>
