<svg width="22" height="22" viewBox="0 0 22 22" fill="none" xmlns="http://www.w3.org/2000/svg">
<path fill-rule="evenodd" clip-rule="evenodd" d="M3.21574 15.4475C3.14575 15.4913 3.01391 15.7656 3.07356 16.0063C3.16226 16.3642 3.47778 16.5039 3.47778 16.5039C3.47778 16.5039 3.97139 17.165 3.97139 17.5494C3.97139 17.9338 3.97139 18.0831 3.83911 18.4038C3.70683 18.7245 1.11023 19.109 1 20.9996H4.77935L8.60019 21C8.48996 19.1094 5.89336 18.7249 5.76108 18.4042C5.6288 18.0835 5.6288 17.9342 5.6288 17.5498C5.6288 17.1654 6.12241 16.5044 6.12241 16.5044C6.12241 16.5044 6.43793 16.3647 6.52664 16.0067C6.58628 15.766 6.45444 15.4917 6.38446 15.448C6.57153 14.869 6.94514 12.8733 4.82084 12.8013C4.8114 12.8 4.80201 12.8002 4.79266 12.8005C2.65505 12.8729 3.02867 14.8686 3.21574 15.4475Z" stroke="#707070" stroke-linecap="round" stroke-linejoin="round"/>
<path fill-rule="evenodd" clip-rule="evenodd" d="M15.6161 15.4475C15.5461 15.4913 15.4142 15.7656 15.4739 16.0063C15.5626 16.3642 15.8781 16.5039 15.8781 16.5039C15.8781 16.5039 16.3717 17.165 16.3717 17.5494C16.3717 17.9338 16.3717 18.0831 16.2394 18.4038C16.1072 18.7245 13.5106 19.109 13.4003 20.9996H17.1797L21.0005 21C20.8903 19.1094 18.2937 18.7249 18.1614 18.4042C18.0291 18.0835 18.0291 17.9342 18.0291 17.5498C18.0291 17.1654 18.5227 16.5044 18.5227 16.5044C18.5227 16.5044 18.8383 16.3647 18.927 16.0067C18.9866 15.766 18.8548 15.4917 18.7848 15.448C18.9719 14.869 19.3455 12.8733 17.2212 12.8013C17.2117 12.8 17.2023 12.8002 17.193 12.8005C15.0554 12.8729 15.429 14.8686 15.6161 15.4475Z" stroke="#707070" stroke-linecap="round" stroke-linejoin="round"/>
<path fill-rule="evenodd" clip-rule="evenodd" d="M9.4159 3.64725C9.34592 3.69096 9.21408 3.96529 9.27372 4.20599C9.36243 4.56395 9.67795 4.70365 9.67795 4.70365C9.67795 4.70365 10.1716 5.36466 10.1716 5.74908C10.1716 6.13349 10.1716 6.28284 10.0393 6.60353C9.907 6.92423 7.3104 7.30867 7.20016 9.19929H10.9795L14.8004 9.1997C14.6901 7.30908 12.0935 6.92465 11.9612 6.60395C11.829 6.28325 11.829 6.1339 11.829 5.74949C11.829 5.36508 12.3226 4.70407 12.3226 4.70407C12.3226 4.70407 12.6381 4.56436 12.7268 4.2064C12.7864 3.9657 12.6546 3.69137 12.5846 3.64766C12.7717 3.06876 13.1453 1.07299 11.021 1.00106C11.0116 0.999695 11.0022 0.999938 10.9928 1.00022C8.85522 1.07257 9.22883 3.06834 9.4159 3.64725Z" stroke="#707070" stroke-linecap="round" stroke-linejoin="round"/>
<path d="M11.0002 13.9998L13.6003 15.5999" stroke="#707070" stroke-linecap="round" stroke-linejoin="round"/>
<path d="M11.0003 11.3997V13.9998L8.40021 15.5999" stroke="#707070" stroke-linecap="round" stroke-linejoin="round"/>
</svg>
