<svg width="72" height="82" viewBox="0 0 72 82" fill="none" xmlns="http://www.w3.org/2000/svg">
<mask id="path-1-inside-1_190_1271" fill="white">
<path d="M68.5646 75.6604L67.2089 73.9469L60.7752 81.0234C60.6121 81.209 60.4107 81.3578 60.1846 81.4598C59.9585 81.5617 59.7129 81.6145 59.4645 81.6145C59.216 81.6145 58.9705 81.5617 58.7444 81.4598C58.5183 81.3578 58.3169 81.209 58.1538 81.0234L51.6002 74.0063L45.1814 80.8528C45.0243 81.0411 44.8285 81.1942 44.607 81.3018C44.3855 81.4093 44.1434 81.4689 43.8968 81.4767C43.6502 81.4844 43.4048 81.44 43.1769 81.3465C42.949 81.253 42.7438 81.1125 42.575 80.9344L35.7668 74.0063L29.5802 81.016L29.4678 81.1495C29.3054 81.34 29.103 81.4931 28.8747 81.5981C28.6463 81.7032 28.3976 81.7576 28.1459 81.7576C27.8941 81.7576 27.6454 81.7032 27.4171 81.5981C27.1888 81.4931 26.9863 81.34 26.8239 81.1495L20.3453 74.0063L13.6569 81.0234C13.4938 81.2065 13.2933 81.3532 13.0686 81.4536C12.8439 81.5541 12.6002 81.606 12.3536 81.606C12.1071 81.606 11.8634 81.5541 11.6387 81.4536C11.414 81.3532 11.2135 81.2065 11.0504 81.0234L4.69158 73.895L3.37337 75.5788C3.21149 75.8282 2.99022 76.0344 2.72903 76.1793C2.46783 76.3241 2.1747 76.4032 1.87541 76.4096C1.3521 76.3828 0.860951 76.1513 0.509861 75.766C0.158771 75.3807 -0.0235458 74.8732 0.00296002 74.3549V2.0547C-0.0256418 1.53833 0.153944 1.03185 0.502247 0.646563C0.850549 0.261277 1.33907 0.0287184 1.86043 0L69.9652 0C70.4885 0.0268567 70.9796 0.258342 71.3307 0.643604C71.6818 1.02887 71.8641 1.5364 71.8376 2.0547V74.3401C71.8413 74.6288 71.7853 74.9152 71.6733 75.1818C71.5613 75.4484 71.3954 75.6895 71.186 75.8904C71.0114 76.0677 70.7996 76.2048 70.5656 76.2922C70.3316 76.3795 70.0811 76.4149 69.8317 76.3958C69.5824 76.3767 69.3404 76.3036 69.1227 76.1816C68.905 76.0597 68.7171 75.8919 68.5721 75.6901L68.5646 75.6604ZM11.0729 11.8683H26.2697V16.4005H21.2066V29.6708H16.1435V16.4005H11.0804V11.8683H11.0729ZM36.8827 26.8743H31.4976L30.7111 29.6708H25.4683L31.535 11.8683H36.9951L43.0393 29.6708H37.6467L36.8977 26.8817L36.8827 26.8743ZM35.954 22.6833L34.1939 16.3189L32.4263 22.6981L35.954 22.6833ZM43.4438 11.8683H48.9488L51.8024 17.3426L54.6036 11.8683H60.0337L55.023 20.4877L60.5131 29.6708H54.8957L51.735 23.9591L48.5443 29.6708H42.9794L48.5443 20.3986L43.4438 11.8683ZM53.2704 56.545C53.6487 56.6028 53.9936 56.7928 54.2428 57.0805C54.492 57.3682 54.629 57.7348 54.629 58.1139C54.629 58.493 54.492 58.8595 54.2428 59.1473C53.9936 59.435 53.6487 59.6249 53.2704 59.6827H14.2336C13.8553 59.6249 13.5104 59.435 13.2612 59.1473C13.012 58.8595 12.875 58.493 12.875 58.1139C12.875 57.7348 13.012 57.3682 13.2612 57.0805C13.5104 56.7928 13.8553 56.6028 14.2336 56.545H53.2704ZM61.0748 46.4199C61.4584 46.4722 61.8099 46.6603 62.0644 46.9493C62.3188 47.2384 62.459 47.6089 62.459 47.9924C62.459 48.3759 62.3188 48.7465 62.0644 49.0355C61.8099 49.3246 61.4584 49.5127 61.0748 49.565H13.8291C13.4455 49.5127 13.094 49.3246 12.8396 49.0355C12.5851 48.7465 12.4449 48.3759 12.4449 47.9924C12.4449 47.6089 12.5851 47.2384 12.8396 46.9493C13.094 46.6603 13.4455 46.4722 13.8291 46.4199H61.0748ZM61.1422 36.2948C61.3787 36.3194 61.6065 36.3968 61.8085 36.5211C62.0104 36.6455 62.1813 36.8136 62.3082 37.0128C62.4351 37.2121 62.5147 37.4372 62.541 37.6712C62.5674 37.9053 62.5398 38.1423 62.4604 38.3643C62.3831 38.6678 62.2069 38.9377 61.9591 39.1321C61.7114 39.3265 61.4058 39.4347 61.0898 39.4398H13.8291C13.4455 39.3875 13.094 39.1995 12.8396 38.9104C12.5851 38.6213 12.4449 38.2508 12.4449 37.8673C12.4449 37.4838 12.5851 37.1133 12.8396 36.8242C13.094 36.5351 13.4455 36.3471 13.8291 36.2948H61.1422ZM68.0253 4.19099H3.80029V69.2293C4.12819 69.0391 4.51059 68.9621 4.88745 69.0104C5.26431 69.0587 5.61429 69.2297 5.88245 69.4963C5.92281 69.528 5.95815 69.5655 5.98731 69.6076H5.9948L12.466 76.825L19.1244 69.8153C19.2875 69.6322 19.488 69.4855 19.7127 69.3851C19.9374 69.2846 20.1811 69.2327 20.4276 69.2327C20.6742 69.2327 20.9179 69.2846 21.1426 69.3851C21.3673 69.4855 21.5678 69.6322 21.7309 69.8153L28.1421 76.8992L34.3587 69.8301C34.5157 69.6424 34.7113 69.4901 34.9324 69.3832C35.1536 69.2764 35.3952 69.2175 35.6412 69.2104C35.8872 69.2034 36.1318 69.2484 36.3588 69.3425C36.5859 69.4366 36.79 69.5775 36.9576 69.7559L43.7958 76.736L50.2895 69.8672C50.4518 69.6843 50.6517 69.5377 50.8758 69.4373C51.0999 69.3369 51.343 69.285 51.589 69.285C51.8349 69.285 52.078 69.3369 52.3021 69.4373C52.5262 69.5377 52.7261 69.6843 52.8884 69.8672L59.3896 76.8398L65.9132 69.6669C66.1662 69.3716 66.5132 69.1703 66.897 69.0961C67.2809 69.022 67.6788 69.0794 68.0253 69.259V4.19099Z"/>
</mask>
<path d="M68.5646 75.6604L67.2089 73.9469L60.7752 81.0234C60.6121 81.209 60.4107 81.3578 60.1846 81.4598C59.9585 81.5617 59.7129 81.6145 59.4645 81.6145C59.216 81.6145 58.9705 81.5617 58.7444 81.4598C58.5183 81.3578 58.3169 81.209 58.1538 81.0234L51.6002 74.0063L45.1814 80.8528C45.0243 81.0411 44.8285 81.1942 44.607 81.3018C44.3855 81.4093 44.1434 81.4689 43.8968 81.4767C43.6502 81.4844 43.4048 81.44 43.1769 81.3465C42.949 81.253 42.7438 81.1125 42.575 80.9344L35.7668 74.0063L29.5802 81.016L29.4678 81.1495C29.3054 81.34 29.103 81.4931 28.8747 81.5981C28.6463 81.7032 28.3976 81.7576 28.1459 81.7576C27.8941 81.7576 27.6454 81.7032 27.4171 81.5981C27.1888 81.4931 26.9863 81.34 26.8239 81.1495L20.3453 74.0063L13.6569 81.0234C13.4938 81.2065 13.2933 81.3532 13.0686 81.4536C12.8439 81.5541 12.6002 81.606 12.3536 81.606C12.1071 81.606 11.8634 81.5541 11.6387 81.4536C11.414 81.3532 11.2135 81.2065 11.0504 81.0234L4.69158 73.895L3.37337 75.5788C3.21149 75.8282 2.99022 76.0344 2.72903 76.1793C2.46783 76.3241 2.1747 76.4032 1.87541 76.4096C1.3521 76.3828 0.860951 76.1513 0.509861 75.766C0.158771 75.3807 -0.0235458 74.8732 0.00296002 74.3549V2.0547C-0.0256418 1.53833 0.153944 1.03185 0.502247 0.646563C0.850549 0.261277 1.33907 0.0287184 1.86043 0L69.9652 0C70.4885 0.0268567 70.9796 0.258342 71.3307 0.643604C71.6818 1.02887 71.8641 1.5364 71.8376 2.0547V74.3401C71.8413 74.6288 71.7853 74.9152 71.6733 75.1818C71.5613 75.4484 71.3954 75.6895 71.186 75.8904C71.0114 76.0677 70.7996 76.2048 70.5656 76.2922C70.3316 76.3795 70.0811 76.4149 69.8317 76.3958C69.5824 76.3767 69.3404 76.3036 69.1227 76.1816C68.905 76.0597 68.7171 75.8919 68.5721 75.6901L68.5646 75.6604ZM11.0729 11.8683H26.2697V16.4005H21.2066V29.6708H16.1435V16.4005H11.0804V11.8683H11.0729ZM36.8827 26.8743H31.4976L30.7111 29.6708H25.4683L31.535 11.8683H36.9951L43.0393 29.6708H37.6467L36.8977 26.8817L36.8827 26.8743ZM35.954 22.6833L34.1939 16.3189L32.4263 22.6981L35.954 22.6833ZM43.4438 11.8683H48.9488L51.8024 17.3426L54.6036 11.8683H60.0337L55.023 20.4877L60.5131 29.6708H54.8957L51.735 23.9591L48.5443 29.6708H42.9794L48.5443 20.3986L43.4438 11.8683ZM53.2704 56.545C53.6487 56.6028 53.9936 56.7928 54.2428 57.0805C54.492 57.3682 54.629 57.7348 54.629 58.1139C54.629 58.493 54.492 58.8595 54.2428 59.1473C53.9936 59.435 53.6487 59.6249 53.2704 59.6827H14.2336C13.8553 59.6249 13.5104 59.435 13.2612 59.1473C13.012 58.8595 12.875 58.493 12.875 58.1139C12.875 57.7348 13.012 57.3682 13.2612 57.0805C13.5104 56.7928 13.8553 56.6028 14.2336 56.545H53.2704ZM61.0748 46.4199C61.4584 46.4722 61.8099 46.6603 62.0644 46.9493C62.3188 47.2384 62.459 47.6089 62.459 47.9924C62.459 48.3759 62.3188 48.7465 62.0644 49.0355C61.8099 49.3246 61.4584 49.5127 61.0748 49.565H13.8291C13.4455 49.5127 13.094 49.3246 12.8396 49.0355C12.5851 48.7465 12.4449 48.3759 12.4449 47.9924C12.4449 47.6089 12.5851 47.2384 12.8396 46.9493C13.094 46.6603 13.4455 46.4722 13.8291 46.4199H61.0748ZM61.1422 36.2948C61.3787 36.3194 61.6065 36.3968 61.8085 36.5211C62.0104 36.6455 62.1813 36.8136 62.3082 37.0128C62.4351 37.2121 62.5147 37.4372 62.541 37.6712C62.5674 37.9053 62.5398 38.1423 62.4604 38.3643C62.3831 38.6678 62.2069 38.9377 61.9591 39.1321C61.7114 39.3265 61.4058 39.4347 61.0898 39.4398H13.8291C13.4455 39.3875 13.094 39.1995 12.8396 38.9104C12.5851 38.6213 12.4449 38.2508 12.4449 37.8673C12.4449 37.4838 12.5851 37.1133 12.8396 36.8242C13.094 36.5351 13.4455 36.3471 13.8291 36.2948H61.1422ZM68.0253 4.19099H3.80029V69.2293C4.12819 69.0391 4.51059 68.9621 4.88745 69.0104C5.26431 69.0587 5.61429 69.2297 5.88245 69.4963C5.92281 69.528 5.95815 69.5655 5.98731 69.6076H5.9948L12.466 76.825L19.1244 69.8153C19.2875 69.6322 19.488 69.4855 19.7127 69.3851C19.9374 69.2846 20.1811 69.2327 20.4276 69.2327C20.6742 69.2327 20.9179 69.2846 21.1426 69.3851C21.3673 69.4855 21.5678 69.6322 21.7309 69.8153L28.1421 76.8992L34.3587 69.8301C34.5157 69.6424 34.7113 69.4901 34.9324 69.3832C35.1536 69.2764 35.3952 69.2175 35.6412 69.2104C35.8872 69.2034 36.1318 69.2484 36.3588 69.3425C36.5859 69.4366 36.79 69.5775 36.9576 69.7559L43.7958 76.736L50.2895 69.8672C50.4518 69.6843 50.6517 69.5377 50.8758 69.4373C51.0999 69.3369 51.343 69.285 51.589 69.285C51.8349 69.285 52.078 69.3369 52.3021 69.4373C52.5262 69.5377 52.7261 69.6843 52.8884 69.8672L59.3896 76.8398L65.9132 69.6669C66.1662 69.3716 66.5132 69.1703 66.897 69.0961C67.2809 69.022 67.6788 69.0794 68.0253 69.259V4.19099Z" fill="#B11226" stroke="white" stroke-width="1.2" mask="url(#path-1-inside-1_190_1271)"/>
</svg>
