<svg width="20" height="20" viewBox="0 0 20 20" fill="none" xmlns="http://www.w3.org/2000/svg">
<path d="M12.5222 0L17.4774 2.83186L16.5175 4.49133C16.8451 4.87504 17.1427 5.29534 17.4103 5.75221C17.6779 6.20909 17.9012 6.68106 18.0802 7.16814H20V12.8319H18.0802C17.7231 13.8202 17.2022 14.7124 16.5175 15.5087L17.4774 17.1681L12.5222 20L11.5623 18.3405C10.5205 18.5322 9.47898 18.5322 8.43767 18.3405L7.47777 20L2.52259 17.1681L3.48248 15.5087C3.14014 15.1103 2.83874 14.6863 2.57829 14.2365C2.31785 13.7867 2.09835 13.3185 1.91979 12.8319H0V7.16814H1.91979C2.2769 6.17982 2.7978 5.28755 3.48248 4.49133L2.52259 2.83186L7.47777 0L8.43767 1.65947C9.47946 1.46785 10.521 1.46785 11.5623 1.65947L12.5222 0ZM13.0579 1.92496L12.7901 2.36743L12.2987 3.23044L11.2945 3.05345C10.4313 2.89109 9.56826 2.89109 8.7055 3.05345L7.70132 3.23044L6.94211 1.92496L4.48666 3.34088L5.22301 4.64637L4.57594 5.39894C4.01028 6.06254 3.57866 6.80732 3.28108 7.63327L2.94611 8.58478H1.42842V11.4166H2.92397L3.28108 12.3681C3.43011 12.7958 3.60866 13.1865 3.81673 13.5405C4.02481 13.8945 4.27787 14.2485 4.57594 14.6025L5.22301 15.355L4.48666 16.6605L6.94211 18.0765L7.70132 16.771L8.7055 16.948C9.56874 17.1103 10.4317 17.1103 11.2945 16.948L12.2987 16.771L13.0579 18.0765L15.5133 16.6605L14.777 15.355L15.4241 14.6025C15.9897 13.9238 16.4213 13.179 16.7189 12.3681L17.0539 11.4166H18.5716V8.58478H17.076L16.7189 7.63327C16.5851 7.23493 16.4066 6.84767 16.1833 6.4715C15.96 6.09534 15.7069 5.73758 15.4241 5.39823L14.777 4.64566L15.5133 3.34018L13.0579 1.92496ZM10.0004 5.04425C11.414 5.07398 12.5932 5.55705 13.5378 6.49345C14.4825 7.42985 14.9698 8.5987 14.9998 10C14.9698 11.4013 14.4825 12.5701 13.5378 13.5065C12.5932 14.4429 11.414 14.926 10.0004 14.9558C8.5867 14.926 7.40754 14.4429 6.46288 13.5065C5.51822 12.5701 5.03089 11.4013 5.00089 10C5.03089 8.5987 5.51822 7.42985 6.46288 6.49345C7.40754 5.55705 8.5867 5.07398 10.0004 5.04425ZM10.0004 6.46018C8.98856 6.48991 8.14794 6.83658 7.47848 7.50018C6.80903 8.16378 6.45931 8.99705 6.42931 10C6.45931 11.0029 6.80903 11.8362 7.47848 12.4998C8.14794 13.1634 8.98856 13.5101 10.0004 13.5398C11.0122 13.5101 11.8528 13.1634 12.5222 12.4998C13.1917 11.8362 13.5414 11.0029 13.5714 10C13.5414 8.99705 13.1917 8.16378 12.5222 7.50018C11.8528 6.83658 11.0122 6.48991 10.0004 6.46018Z" fill="#707070"/>
</svg>
