<svg width="52" height="58" viewBox="0 0 52 58" fill="none" xmlns="http://www.w3.org/2000/svg">
<path d="M10.8056 5.8V19.55H6.52778V2.9C6.52778 2.32886 6.75382 1.78169 7.15526 1.3787C7.5566 0.975815 8.10033 0.75 8.66667 0.75H49.1111C49.6774 0.75 50.2212 0.975815 50.6225 1.3787C51.024 1.78168 51.25 2.32886 51.25 2.9V55.1C51.25 55.6711 51.024 56.2183 50.6225 56.6213C50.2212 57.0242 49.6775 57.25 49.1111 57.25H8.66667C8.10033 57.25 7.5566 57.0242 7.15526 56.6213C6.75382 56.2183 6.52778 55.6711 6.52778 55.1V38.45H10.8056V52.2V52.95H11.5556H46.2222H46.9722V52.2V5.8V5.05H46.2222H11.5556H10.8056V5.8ZM23.1111 26.85H23.8611V26.1V18.9642L36.3578 29L23.8611 39.0358V31.9V31.15H23.1111H0.75V26.85H23.1111Z" fill="#B11226" stroke="white" stroke-width="1.5"/>
</svg>
