<svg width="28" height="28" fill="none" xmlns="http://www.w3.org/2000/svg">
    <circle cx="14" cy="14" r="14" fill="#F9ECE0" />
    <path d="M17.296 14.226a2.862 2.862 0 0 0-2.096.903 4.387 4.387 0 0 0-2.753-.958h-.008a4.354 4.354 0 0 0-3.143 1.32c-.84.858-1.299 2.03-1.296 3.303a.26.26 0 0 0 .262.262l6.888-.013.047.053a2.887 2.887 0 1 0 2.099-4.87zm-8.763 4.303c.055-1.031.454-1.973 1.138-2.674a3.826 3.826 0 0 1 2.768-1.16h.008a3.871 3.871 0 0 1 2.43.845 2.893 2.893 0 0 0-.1 2.979l-6.244.01zm8.763.945a2.361 2.361 0 1 1 0-4.723 2.361 2.361 0 0 1 0 4.723zM12.442 13.547a2.773 2.773 0 1 0 0-5.547 2.773 2.773 0 0 0 0 5.547zm0-5.022a2.249 2.249 0 1 1 0 4.497 2.249 2.249 0 0 1 0-4.497z" fill="#982C31" />
    <path d="M18.358 16.85h-2.125a.262.262 0 0 0 0 .524h2.125a.262.262 0 1 0 0-.524z" fill="#982C31" />
</svg>