<svg width="88" height="88" viewBox="0 0 88 88" fill="none" xmlns="http://www.w3.org/2000/svg">
    <g filter="url(#filter0_d)">
        <circle cx="44" cy="40" r="40" fill="#EBE4DD" />
    </g>
    <path d="M47.4892 23.4146C49.9281 23.4134 52.2937 24.2281 54.1915 25.7227C56.0892 27.2173 57.4044 29.3014 57.9177 31.6276C58.4309 33.9537 58.1112 36.3813 57.0119 38.5053C55.9126 40.6293 54.1001 42.3214 51.8767 43.2994C51.166 44.8323 50.0848 46.1741 48.7258 47.2098C47.3669 48.2455 45.7707 48.9442 44.0742 49.2459C42.3777 49.5476 40.6315 49.4434 38.9853 48.9421C37.3392 48.4408 35.8422 47.5575 34.6229 46.3679C33.4035 45.1782 32.4981 43.7178 31.9843 42.1118C31.4705 40.5058 31.3636 38.8022 31.6729 37.1471C31.9821 35.4919 32.6982 33.9347 33.7598 32.6089C34.8214 31.283 36.1968 30.2282 37.768 29.5349C38.6132 27.7105 39.9799 26.1626 41.7041 25.0771C43.4284 23.9915 45.4371 23.4142 47.4892 23.4146ZM43.4909 32.5164H40.8254V33.8166C39.9593 33.8146 39.1263 34.1416 38.5032 34.7285C37.88 35.3154 37.5156 36.116 37.4872 36.9606C37.4588 37.8051 37.7686 38.6273 38.3509 39.2528C38.9333 39.8783 39.7424 40.258 40.6068 40.3114L40.8254 40.3179H43.4909L43.6109 40.3283C43.7645 40.3554 43.9035 40.4344 44.0036 40.5513C44.1037 40.6682 44.1585 40.8157 44.1585 40.968C44.1585 41.1204 44.1037 41.2679 44.0036 41.3848C43.9035 41.5017 43.7645 41.5806 43.6109 41.6078L43.4909 41.6182H38.1599V44.2187H40.8254V45.5189H43.4909V44.2187C44.3571 44.2207 45.19 43.8937 45.8132 43.3068C46.4363 42.7199 46.8007 41.9193 46.8291 41.0747C46.8576 40.2301 46.5478 39.408 45.9654 38.7825C45.3831 38.157 44.5739 37.7773 43.7095 37.7239L43.4909 37.7174H40.8254L40.7054 37.707C40.5518 37.6798 40.4128 37.6009 40.3127 37.484C40.2126 37.3671 40.1578 37.2196 40.1578 37.0673C40.1578 36.9149 40.2126 36.7674 40.3127 36.6505C40.4128 36.5336 40.5518 36.4547 40.7054 36.4275L40.8254 36.4171H46.1565V33.8166H43.4909V32.5164ZM47.4892 26.0151C46.3599 26.0138 45.2433 26.2464 44.213 26.6977C43.1828 27.1489 42.2626 27.8084 41.5131 28.6325C43.0195 28.5433 44.5281 28.7671 45.9392 29.289C47.3503 29.811 48.6318 30.6193 49.6989 31.6605C50.7659 32.7017 51.5943 33.952 52.1292 35.3287C52.664 36.7055 52.8932 38.1774 52.8016 39.647C54.0134 38.5959 54.869 37.2102 55.255 35.6738C55.641 34.1374 55.5391 32.5227 54.9629 31.0441C54.3866 29.5655 53.3633 28.2927 52.0285 27.3945C50.6938 26.4963 49.1107 26.0153 47.4892 26.0151Z" fill="#982C31" />
    <path fill="#982C31" d="M26.60 62.45L27.65 62.45Q27.37 65.61 25.17 65.61L25.17 65.61Q23.89 65.61 23.18 64.27L23.18 64.27Q22.57 63.10 22.57 61.00L22.57 61.00Q22.57 58.86 23.25 57.60L23.25 57.60Q23.92 56.36 25.17 56.36L25.17 56.36Q27.18 56.36 27.57 59.11L27.57 59.11L26.55 59.11Q26.28 57.30 25.17 57.30L25.17 57.30Q23.65 57.30 23.65 61.00L23.65 61.00Q23.65 64.67 25.19 64.67L25.19 64.67Q26.49 64.67 26.60 62.45L26.60 62.45ZM30.12 61.16L29.12 61.16Q29.36 59.18 31.38 59.18L31.38 59.18Q33.41 59.18 33.41 61.36L33.41 61.36L33.41 64.34Q33.41 64.70 33.74 64.70L33.74 64.70Q33.85 64.70 34.04 64.66L34.04 64.66L34.04 65.53Q33.79 65.60 33.44 65.60L33.44 65.60Q32.61 65.60 32.50 64.67L32.50 64.67Q31.66 65.60 30.64 65.60L30.64 65.60Q29.98 65.60 29.55 65.25L29.55 65.25Q28.99 64.80 28.99 63.91L28.99 63.91Q28.99 61.85 32.52 61.61L32.52 61.61L32.52 61.36Q32.52 60.02 31.38 60.02L31.38 60.02Q30.21 60.02 30.12 61.16L30.12 61.16ZM32.52 63.22L32.52 62.40Q29.90 62.53 29.90 63.86L29.90 63.86Q29.90 64.76 30.79 64.76L30.79 64.76Q31.39 64.76 31.97 64.30L31.97 64.30Q32.52 63.86 32.52 63.22L32.52 63.22ZM36.32 59.43L37.28 59.43L37.28 60.68Q38.36 59.53 39.59 59.19L39.59 59.19L39.59 60.27Q38.17 60.62 37.28 61.81L37.28 61.81L37.28 65.36L36.32 65.36L36.32 59.43ZM45.14 60.10L45.14 56.61L46.07 56.61L46.07 65.36L45.39 65.36L45.16 64.59Q44.52 65.61 43.50 65.61L43.50 65.61Q42.55 65.61 41.97 64.70L41.97 64.70Q41.38 63.81 41.38 62.32L41.38 62.32Q41.38 61.11 41.82 60.27L41.82 60.27Q42.40 59.19 43.48 59.19L43.48 59.19Q44.38 59.19 45.14 60.10L45.14 60.10ZM43.71 60.07L43.71 60.07Q43.06 60.07 42.68 60.77L42.68 60.77Q42.36 61.41 42.36 62.34L42.36 62.34Q42.36 63.34 42.66 63.97L42.66 63.97Q43.01 64.73 43.71 64.73L43.71 64.73Q44.34 64.73 44.75 64.10L44.75 64.10Q45.18 63.47 45.18 62.34L45.18 62.34Q45.18 61.41 44.86 60.82L44.86 60.82Q44.46 60.07 43.71 60.07ZM50.61 56.61L50.61 64.00Q50.61 64.53 51.13 64.53L51.13 64.53Q51.55 64.53 52.05 64.44L52.05 64.44L52.05 65.37Q51.31 65.47 50.96 65.47L50.96 65.47Q49.64 65.47 49.64 64.17L49.64 64.17L49.64 56.61L50.61 56.61ZM57.77 63.52L58.75 63.52Q58.21 65.61 56.39 65.61L56.39 65.61Q55.26 65.61 54.60 64.67L54.60 64.67Q54.00 63.81 54.00 62.40L54.00 62.40Q54.00 61.05 54.56 60.19L54.56 60.19Q55.22 59.19 56.38 59.19L56.38 59.19Q58.63 59.19 58.77 62.59L58.77 62.59L54.94 62.59Q55.01 64.77 56.40 64.77L56.40 64.77Q57.50 64.77 57.77 63.52L57.77 63.52ZM54.98 61.79L57.77 61.79Q57.57 60.02 56.38 60.02L56.38 60.02Q55.22 60.02 54.98 61.79L54.98 61.79ZM60.25 63.52L61.24 63.52Q61.40 64.77 62.70 64.77L62.70 64.77Q64.00 64.77 64.00 63.86L64.00 63.86Q64.00 63.42 63.70 63.17L63.70 63.17Q63.38 62.91 62.56 62.62L62.56 62.62L62.39 62.56Q61.48 62.24 61.07 61.93L61.07 61.93Q60.49 61.48 60.49 60.83L60.49 60.83Q60.49 60.05 61.17 59.58L61.17 59.58Q61.75 59.18 62.59 59.18L62.59 59.18Q64.47 59.18 64.77 60.90L64.77 60.90L63.80 60.90Q63.65 59.98 62.58 59.98L62.58 59.98Q61.43 59.98 61.43 60.79L61.43 60.79Q61.43 61.32 62.97 61.87L62.97 61.87Q63.83 62.17 64.21 62.45L64.21 62.45Q64.95 62.97 64.95 63.83L64.95 63.83Q64.95 64.67 64.29 65.16L64.29 65.16Q63.67 65.61 62.67 65.61L62.67 65.61Q60.49 65.61 60.25 63.52L60.25 63.52ZM66.50 63.52L67.49 63.52Q67.65 64.77 68.95 64.77L68.95 64.77Q70.25 64.77 70.25 63.86L70.25 63.86Q70.25 63.42 69.95 63.17L69.95 63.17Q69.63 62.91 68.81 62.62L68.81 62.62L68.64 62.56Q67.73 62.24 67.32 61.93L67.32 61.93Q66.74 61.48 66.74 60.83L66.74 60.83Q66.74 60.05 67.42 59.58L67.42 59.58Q68.00 59.18 68.84 59.18L68.84 59.18Q70.72 59.18 71.02 60.90L71.02 60.90L70.05 60.90Q69.90 59.98 68.83 59.98L68.83 59.98Q67.68 59.98 67.68 60.79L67.68 60.79Q67.68 61.32 69.22 61.87L69.22 61.87Q70.08 62.17 70.46 62.45L70.46 62.45Q71.20 62.97 71.20 63.83L71.20 63.83Q71.20 64.67 70.54 65.16L70.54 65.16Q69.92 65.61 68.92 65.61L68.92 65.61Q66.74 65.61 66.50 63.52L66.50 63.52Z" />
    <defs>
        <filter id="filter0_d" x="0" y="0" width="88" height="88" filterUnits="userSpaceOnUse" color-interpolation-filters="sRGB">
            <feFlood flood-opacity="0" result="BackgroundImageFix" />
            <feColorMatrix in="SourceAlpha" type="matrix" values="0 0 0 0 0 0 0 0 0 0 0 0 0 0 0 0 0 0 127 0" />
            <feOffset dy="4" />
            <feGaussianBlur stdDeviation="2" />
            <feColorMatrix type="matrix" values="0 0 0 0 0 0 0 0 0 0 0 0 0 0 0 0 0 0 0.4 0" />
            <feBlend mode="normal" in2="BackgroundImageFix" result="effect1_dropShadow" />
            <feBlend mode="normal" in="SourceGraphic" in2="effect1_dropShadow" result="shape" />
        </filter>
    </defs>
</svg>
    