<svg width="28" height="28" viewBox="0 0 28 28" fill="none" xmlns="http://www.w3.org/2000/svg">
<circle cx="14" cy="14" r="14" fill="#FFDEC0"/>
<path d="M19.9267 19.5732L16.2755 15.922C17.0339 15.08 17.5 13.9697 17.5 12.75C17.5 10.1309 15.3691 8 12.75 8C10.1309 8 8 10.1309 8 12.75C8 15.3691 10.1309 17.5 12.75 17.5C13.9698 17.5 15.0799 17.0339 15.922 16.2755L19.5732 19.9268C19.6221 19.9756 19.686 20 19.75 20C19.814 20 19.8779 19.9756 19.9268 19.9268C20.0244 19.8291 20.0244 19.6709 19.9267 19.5732ZM12.75 17C10.4067 17 8.50002 15.0935 8.50002 12.75C8.50002 10.4065 10.4067 8.49999 12.75 8.49999C15.0933 8.49999 17 10.4065 17 12.75C17 15.0935 15.0933 17 12.75 17Z" fill="#982C31"/>
</svg>
