<svg width="40" height="40" viewBox="0 0 40 40" fill="none" xmlns="http://www.w3.org/2000/svg">
<path d="M10 3.3335L5 10.0002V33.3335C5 34.2176 5.35119 35.0654 5.97631 35.6905C6.60143 36.3156 7.44928 36.6668 8.33333 36.6668H31.6667C32.5507 36.6668 33.3986 36.3156 34.0237 35.6905C34.6488 35.0654 35 34.2176 35 33.3335V10.0002L30 3.3335H10Z" stroke="#861F41" stroke-width="2" stroke-linecap="round" stroke-linejoin="round"/>
<path d="M5 10H35" stroke="#861F41" stroke-width="2" stroke-linecap="round" stroke-linejoin="round"/>
<path d="M26.6667 16.6665C26.6667 18.4346 25.9643 20.1303 24.7141 21.3805C23.4638 22.6308 21.7682 23.3332 20 23.3332C18.2319 23.3332 16.5362 22.6308 15.286 21.3805C14.0358 20.1303 13.3334 18.4346 13.3334 16.6665" stroke="#861F41" stroke-width="2" stroke-linecap="round" stroke-linejoin="round"/>
</svg>
