<svg width="24" height="24" viewBox="0 0 24 24" fill="none" xmlns="http://www.w3.org/2000/svg">
<path d="M21 6C21 4.34315 19.6569 3 18 3C16.3431 3 15 4.34315 15 6C15 7.65685 16.3431 9 18 9C19.6569 9 21 7.65685 21 6Z" stroke="#861F41" stroke-width="2" stroke-linecap="round" stroke-linejoin="round"/>
<path d="M9 18C9 16.3431 7.65685 15 6 15C4.34315 15 3 16.3431 3 18C3 19.6569 4.34315 21 6 21C7.65685 21 9 19.6569 9 18Z" stroke="#861F41" stroke-width="2" stroke-linecap="round" stroke-linejoin="round"/>
<path d="M6 7V6.4C6 6.29391 6.21071 6.19217 6.58579 6.11716C6.96086 6.04214 7.46957 6 8 6H15" stroke="#861F41" stroke-width="2" stroke-linecap="round" stroke-linejoin="round"/>
<path d="M9 18H21" stroke="#861F41" stroke-width="2" stroke-linecap="round" stroke-linejoin="round"/>
</svg>
