<svg width="88" height="88" viewBox="0 0 88 88" fill="none" xmlns="http://www.w3.org/2000/svg">
    <g filter="url(#filter0_d)">
    <circle cx="44" cy="40" r="40" fill="#EBE4DD"/>
    </g>
    <path d="M35 30V23C35 21.8954 35.8954 21 37 21H49C50.1046 21 51 21.8954 51 23V30" stroke="#982C31" stroke-width="3" stroke-linecap="round" stroke-linejoin="round"/>
    <path d="M43.7071 47.7071C43.3166 48.0976 42.6834 48.0976 42.2929 47.7071L35.9289 41.3431C35.5384 40.9526 35.5384 40.3195 35.9289 39.9289C36.3195 39.5384 36.9526 39.5384 37.3431 39.9289L43 45.5858L48.6569 39.9289C49.0474 39.5384 49.6805 39.5384 50.0711 39.9289C50.4616 40.3195 50.4616 40.9526 50.0711 41.3431L43.7071 47.7071ZM44 31V47H42V31H44Z" fill="#982C31"/>
    <path d="M20.0659 63.0864L20.2437 64.3052L20.5039 63.207L22.332 56.7578H23.3604L25.144 63.207L25.3979 64.3242L25.5947 63.0801L27.0293 56.7578H28.2544L26.0137 66H24.9028L22.9985 59.2651L22.8525 58.5605L22.7065 59.2651L20.7324 66H19.6216L17.3872 56.7578H18.606L20.0659 63.0864ZM30.7046 66H29.5303V59.1318H30.7046V66ZM29.4351 57.3101C29.4351 57.1196 29.4922 56.9588 29.6064 56.8276C29.7249 56.6965 29.8984 56.6309 30.127 56.6309C30.3555 56.6309 30.529 56.6965 30.6475 56.8276C30.766 56.9588 30.8252 57.1196 30.8252 57.3101C30.8252 57.5005 30.766 57.6592 30.6475 57.7861C30.529 57.9131 30.3555 57.9766 30.127 57.9766C29.8984 57.9766 29.7249 57.9131 29.6064 57.7861C29.4922 57.6592 29.4351 57.5005 29.4351 57.3101ZM34.1831 57.4688V59.1318H35.4653V60.0396H34.1831V64.2988C34.1831 64.5739 34.2402 64.7812 34.3545 64.9209C34.4688 65.0563 34.6634 65.124 34.9385 65.124C35.0739 65.124 35.2601 65.0986 35.4971 65.0479V66C35.1882 66.0846 34.8877 66.127 34.5957 66.127C34.071 66.127 33.6753 65.9683 33.4087 65.6509C33.1421 65.3335 33.0088 64.8828 33.0088 64.2988V60.0396H31.7583V59.1318H33.0088V57.4688H34.1831ZM38.0171 59.9634C38.5376 59.3244 39.2147 59.0049 40.0483 59.0049C41.4998 59.0049 42.2319 59.8237 42.2446 61.4614V66H41.0703V61.4551C41.0661 60.96 40.9518 60.5939 40.7275 60.3569C40.5075 60.12 40.1626 60.0015 39.6929 60.0015C39.312 60.0015 38.9777 60.103 38.6899 60.3062C38.4022 60.5093 38.1779 60.7759 38.0171 61.106V66H36.8428V56.25H38.0171V59.9634ZM43.7173 62.5088C43.7173 61.4551 43.967 60.6087 44.4663 59.9697C44.9657 59.3265 45.6195 59.0049 46.4277 59.0049C47.2318 59.0049 47.8687 59.2799 48.3384 59.8301V56.25H49.5127V66H48.4336L48.3765 65.2637C47.9067 65.8392 47.2529 66.127 46.415 66.127C45.6195 66.127 44.9699 65.8011 44.4663 65.1494C43.967 64.4977 43.7173 63.6471 43.7173 62.5977V62.5088ZM44.8916 62.6421C44.8916 63.4207 45.0524 64.0301 45.374 64.4702C45.6956 64.9103 46.14 65.1304 46.707 65.1304C47.4518 65.1304 47.9956 64.7961 48.3384 64.1274V60.9727C47.9871 60.3252 47.4476 60.0015 46.7197 60.0015C46.1442 60.0015 45.6956 60.2236 45.374 60.668C45.0524 61.1123 44.8916 61.7703 44.8916 62.6421ZM54.6606 60.1855C54.4829 60.1559 54.2904 60.1411 54.083 60.1411C53.3128 60.1411 52.7902 60.4691 52.5151 61.125V66H51.3408V59.1318H52.4834L52.5024 59.9253C52.8875 59.3117 53.4334 59.0049 54.1401 59.0049C54.3687 59.0049 54.5422 59.0345 54.6606 59.0938V60.1855ZM59.7324 66C59.6647 65.8646 59.6097 65.6234 59.5674 65.2764C59.0215 65.8434 58.3698 66.127 57.6123 66.127C56.9352 66.127 56.3787 65.9365 55.9429 65.5557C55.5112 65.1706 55.2954 64.6839 55.2954 64.0957C55.2954 63.3805 55.5662 62.8262 56.1079 62.4326C56.6538 62.0348 57.4198 61.8359 58.4058 61.8359H59.5483V61.2964C59.5483 60.8859 59.4256 60.5601 59.1802 60.3188C58.9347 60.0734 58.5729 59.9507 58.0947 59.9507C57.6758 59.9507 57.3245 60.0565 57.041 60.2681C56.7575 60.4797 56.6157 60.7357 56.6157 61.0361H55.4351C55.4351 60.6934 55.5557 60.3633 55.7969 60.0459C56.0423 59.7243 56.3724 59.4704 56.7871 59.2842C57.2061 59.098 57.6652 59.0049 58.1646 59.0049C58.9559 59.0049 59.5758 59.2038 60.0244 59.6016C60.473 59.9951 60.7057 60.5389 60.7227 61.2329V64.394C60.7227 65.0246 60.8031 65.526 60.9639 65.8984V66H59.7324ZM57.7837 65.105C58.1519 65.105 58.501 65.0098 58.8311 64.8193C59.1611 64.6289 59.4002 64.3813 59.5483 64.0767V62.6675H58.6279C57.1891 62.6675 56.4697 63.0885 56.4697 63.9307C56.4697 64.2988 56.5924 64.5866 56.8379 64.7939C57.0833 65.0013 57.3986 65.105 57.7837 65.105ZM68.6445 64.3813L69.9648 59.1318H71.1392L69.1396 66H68.1875L66.5181 60.7949L64.8931 66H63.9409L61.9478 59.1318H63.1157L64.4678 64.2734L66.0674 59.1318H67.0132L68.6445 64.3813Z" fill="#982C31"/>
    <defs>
    <filter id="filter0_d" x="0" y="0" width="88" height="88" filterUnits="userSpaceOnUse" color-interpolation-filters="sRGB">
    <feFlood flood-opacity="0" result="BackgroundImageFix"/>
    <feColorMatrix in="SourceAlpha" type="matrix" values="0 0 0 0 0 0 0 0 0 0 0 0 0 0 0 0 0 0 127 0"/>
    <feOffset dy="4"/>
    <feGaussianBlur stdDeviation="2"/>
    <feColorMatrix type="matrix" values="0 0 0 0 0 0 0 0 0 0 0 0 0 0 0 0 0 0 0.4 0"/>
    <feBlend mode="normal" in2="BackgroundImageFix" result="effect1_dropShadow"/>
    <feBlend mode="normal" in="SourceGraphic" in2="effect1_dropShadow" result="shape"/>
    </filter>
    </defs>
    </svg>
    